<svg width="295" height="70" viewBox="0 0 295 70" fill="none" xmlns="http://www.w3.org/2000/svg">
<g filter="url(#filter0_d_39_2411)">
<path d="M23.0312 35.2734C22.5156 32.1484 21.7188 28.7109 20.6406 24.9609C20.2656 23.9766 20.0234 23.4844 19.9141 23.4844C19.7109 23.4844 19.4219 24.6094 19.0469 26.8594C18.75 28.4844 18.3828 30.3359 17.9453 32.4141C19.3359 33.5547 21.0312 34.5078 23.0312 35.2734ZM16.3281 39.6562C15.9375 41.3906 15.4531 43.4688 14.875 45.8906C14.4531 47.9688 14.2422 50.1328 14.2422 52.3828V52.7109C14.2422 53.4453 14.4688 53.9297 14.9219 54.1641L14.9453 56.8125H3.41406L3.29688 54.1641C4.39062 53.8359 5.49219 52.7734 6.60156 50.9766C8.78906 47.2266 10.4922 42.8906 11.7109 37.9688C11.4141 37.8281 11.0156 37.6094 10.5156 37.3125C9.90625 36.9688 9.375 36.7969 8.92188 36.7969C8.14062 36.7969 7.42969 37.5391 6.78906 39.0234C4.71094 38.4922 3.55469 37.3984 3.32031 35.7422C3.58594 31.3984 5.95312 29.1953 10.4219 29.1328C11.875 29.2266 12.9609 29.4219 13.6797 29.7188C13.9141 28.5781 14.0938 27.3125 14.2188 25.9219L13.8672 19.1484L32.4297 19.2656C32.4141 20.3281 32.4062 21.2266 32.4062 21.9609C32.4062 30.3828 33.7812 38.0859 36.5312 45.0703C38.5156 50.7422 39.8828 53.5781 40.6328 53.5781L40.7734 56.8125H23.2422V54.2578C23.8672 53.7109 24.1797 52.2891 24.1797 49.9922C24.1797 49.6641 24.1719 49.3203 24.1562 48.9609C24.1562 46.1484 23.9922 43.2969 23.6641 40.4062C23.3359 40.4531 22.8047 40.4766 22.0703 40.4766C20.6641 40.4766 19.2422 40.3125 17.8047 39.9844C17.0703 39.8438 16.5781 39.7344 16.3281 39.6562ZM56.5703 39.2578V45.7969C56.5703 50.9688 58.3516 53.5547 61.9141 53.5547C65.2891 52.9922 66.9766 50.7422 66.9766 46.8047V44.1797C66.9766 41.1172 64.5938 39.3047 59.8281 38.7422H58.5391C57.2266 38.8359 56.5703 39.0078 56.5703 39.2578ZM56.7109 34.6406C56.7109 34.8125 57.3672 34.9453 58.6797 35.0391H59.9688C64.7344 34.5547 67.1172 33.0156 67.1172 30.4219V28.1953C67.1172 24.8672 65.4375 22.9688 62.0781 22.5C58.5 22.5 56.7109 24.6797 56.7109 29.0391V34.6406ZM41.7578 56.8125V53.9766C42.3047 53.8203 42.7188 53.3594 43 52.5938L43.8203 50.0391C44.4766 46.1484 44.8047 43.5391 44.8047 42.2109C44.8047 34.4297 44.1797 28.25 42.9297 23.6719C42.4453 22.6719 41.9141 22.0703 41.3359 21.8672V19.0547H52.9844V19.1016H66.3203C73.0703 19.1016 77.1016 22.2266 78.4141 28.4766C78.5078 29.1172 78.5547 29.7109 78.5547 30.2578C78.5547 30.5703 78.5391 30.8594 78.5078 31.125C78.5078 34.1406 76.2656 36.1641 71.7812 37.1953C74.7344 37.1953 77.1953 39.1641 79.1641 43.1016C79.6172 44.5859 79.8438 45.6172 79.8438 46.1953V46.5234C79.8438 51.1016 77.2812 54.2969 72.1562 56.1094C70.4219 56.625 67.9219 56.8828 64.6562 56.8828H64.3281L41.7578 56.8125ZM101.5 18.8906H101.852C110.852 18.8906 117.07 22.2812 120.508 29.0625C121.93 32.4219 122.641 35.3672 122.641 37.8984C122.641 43.3672 120.023 48.5156 114.789 53.3438C110.898 55.875 106.469 57.1406 101.5 57.1406H99.3906C87 55.8594 80.5469 49.4453 80.0312 37.8984C80.0312 30.5078 84.0859 24.7266 92.1953 20.5547C95.4141 19.4453 98.5156 18.8906 101.5 18.8906ZM98.4062 52.8047C98.5625 52.8359 98.7266 52.8516 98.8984 52.8516C100.461 52.8516 102.164 51.5781 104.008 49.0312C105.852 46.4844 107.203 43.1094 108.062 38.9062C108.547 36.6406 108.789 34.5156 108.789 32.5312C108.789 30.8438 108.523 28.875 107.992 26.625C107.461 24.375 106.344 23.1094 104.641 22.8281C104.453 22.7969 104.273 22.7812 104.102 22.7812C102.57 22.7812 100.883 24.0547 99.0391 26.6016C97.1953 29.1328 95.8359 32.5078 94.9609 36.7266C94.4766 38.9922 94.2344 41.1172 94.2344 43.1016C94.2344 44.7891 94.5 46.7578 95.0312 49.0078C95.5625 51.2578 96.6875 52.5234 98.4062 52.8047ZM136.891 49.7109C139.266 51.5547 141.594 52.7031 143.875 53.1562H144.461C147.961 53.1562 149.805 49.2266 149.992 41.3672V39.0469C149.992 29.7812 148.531 24.0547 145.609 21.8672L145.516 19.4766L158.969 19.6172L158.992 22.4297C156.773 23.2266 155.664 28.1016 155.664 37.0547V40.0312C155.664 43.4375 156.398 45.7812 157.867 47.0625L159.062 48.6562C154.703 54.2812 149.062 57.0938 142.141 57.0938H140.453C137.172 56.9062 133.547 56.1562 129.578 54.8438C127.469 54.2188 125.469 53.2031 123.578 51.7969C124.219 49.2031 124.539 45.3438 124.539 40.2188V38.5547C124.555 37.8516 124.562 37.1641 124.562 36.4922C124.562 29.3047 123.781 24.5312 122.219 22.1719L122.172 19.5L138.859 19.6172L138.953 22.2188C136.938 23.375 135.93 28.4766 135.93 37.5234C135.93 42.8359 136.25 46.8984 136.891 49.7109ZM158.266 30.6094L158.219 30.0938V29.7422C158.359 23.3203 161.797 19.9062 168.531 19.5C169.031 19.4688 169.625 19.4531 170.312 19.4531C171 19.4531 171.781 19.4688 172.656 19.5L188.055 19.6172C188.43 19.6328 188.805 19.6406 189.18 19.6406C190.867 19.6406 192.969 19.3828 195.484 18.8672L195.93 21.1172C195.086 26.1328 191.828 28.875 186.156 29.3438L185.102 29.3672C184.852 31.3828 184.727 34.1016 184.727 37.5234C184.727 46.6172 185.734 52.2031 187.75 54.2812V56.8125H171.109V54.2812C172.594 52.8125 173.336 48.125 173.336 40.2188V38.5547C173.352 37.8516 173.359 37.1719 173.359 36.5156C173.359 33.2188 173.211 30.5391 172.914 28.4766C170.727 27.7891 168.844 27.4453 167.266 27.4453C165.609 27.4453 164.297 27.8281 163.328 28.5938C161.781 29.9531 160.242 30.6328 158.711 30.6328C158.555 30.6328 158.406 30.625 158.266 30.6094ZM224.734 49.7109C227.109 51.5547 229.438 52.7031 231.719 53.1562H232.305C235.805 53.1562 237.648 49.2266 237.836 41.3672V39.0469C237.836 29.7812 236.375 24.0547 233.453 21.8672L233.359 19.4766L246.812 19.6172L246.836 22.4297C244.617 23.2266 243.508 28.1016 243.508 37.0547V40.0312C243.508 43.4375 244.242 45.7812 245.711 47.0625L246.906 48.6562C242.547 54.2812 236.906 57.0938 229.984 57.0938H228.297C225.016 56.9062 221.391 56.1562 217.422 54.8438C215.312 54.2188 213.312 53.2031 211.422 51.7969C212.062 49.2031 212.383 45.3438 212.383 40.2188V38.5547C212.398 37.8516 212.406 37.1641 212.406 36.4922C212.406 29.3047 211.625 24.5312 210.062 22.1719L210.016 19.5L226.703 19.6172L226.797 22.2188C224.781 23.375 223.773 28.4766 223.773 37.5234C223.773 42.8359 224.094 46.8984 224.734 49.7109ZM262.281 18.6562L271.562 20.5312C272.391 20.6719 273.18 20.7422 273.93 20.7422C275.758 20.7422 277.461 20.1875 279.039 19.0781C279.648 19.9688 279.953 21.1094 279.953 22.5C279.953 23.1562 279.867 24.4141 279.695 26.2734C279.539 28.1172 277.555 29.4375 273.742 30.2344H273.32C269.789 30.2344 266.734 27.9453 264.156 23.3672C262.953 22.4141 261.523 21.9375 259.867 21.9375C258.242 22.3906 257.367 23.4531 257.242 25.125C257.242 27.2656 263.289 30.3516 275.383 34.3828C279.508 35.9453 282.242 38.5781 283.586 42.2812C283.789 43.2656 283.891 43.8906 283.891 44.1562C283.891 50.3438 280.195 54.4375 272.805 56.4375C270.648 56.8906 269.086 57.1172 268.117 57.1172H263.242C255.352 57.1172 250.352 54.5859 248.242 49.5234C247.977 49.0859 247.844 48.5859 247.844 48.0234C247.844 43.5078 250.211 41.25 254.945 41.25C257.883 41.3438 260.398 42.1953 262.492 43.8047C259.586 45.0859 258.133 46.5469 258.133 48.1875C258.133 48.7188 258.453 49.7422 259.094 51.2578C259.734 52.7734 261.906 53.5312 265.609 53.5312H265.984C269.797 53.0312 271.703 51.6406 271.703 49.3594V48.0234C271.703 44.2734 266.211 41.1016 255.227 38.5078C251.164 36.5391 248.664 33.9766 247.727 30.8203C247.711 30.4297 247.703 30.0547 247.703 29.6953C247.703 22.3359 252.562 18.6562 262.281 18.6562Z" fill="#DE3500"/>
</g>
<path d="M21.0312 31.2734C20.5156 28.1484 19.7188 24.7109 18.6406 20.9609C18.2656 19.9766 18.0234 19.4844 17.9141 19.4844C17.7109 19.4844 17.4219 20.6094 17.0469 22.8594C16.75 24.4844 16.3828 26.3359 15.9453 28.4141C17.3359 29.5547 19.0312 30.5078 21.0312 31.2734ZM14.3281 35.6562C13.9375 37.3906 13.4531 39.4688 12.875 41.8906C12.4531 43.9688 12.2422 46.1328 12.2422 48.3828V48.7109C12.2422 49.4453 12.4688 49.9297 12.9219 50.1641L12.9453 52.8125H1.41406L1.29688 50.1641C2.39062 49.8359 3.49219 48.7734 4.60156 46.9766C6.78906 43.2266 8.49219 38.8906 9.71094 33.9688C9.41406 33.8281 9.01562 33.6094 8.51562 33.3125C7.90625 32.9688 7.375 32.7969 6.92188 32.7969C6.14062 32.7969 5.42969 33.5391 4.78906 35.0234C2.71094 34.4922 1.55469 33.3984 1.32031 31.7422C1.58594 27.3984 3.95312 25.1953 8.42188 25.1328C9.875 25.2266 10.9609 25.4219 11.6797 25.7188C11.9141 24.5781 12.0938 23.3125 12.2188 21.9219L11.8672 15.1484L30.4297 15.2656C30.4141 16.3281 30.4062 17.2266 30.4062 17.9609C30.4062 26.3828 31.7812 34.0859 34.5312 41.0703C36.5156 46.7422 37.8828 49.5781 38.6328 49.5781L38.7734 52.8125H21.2422V50.2578C21.8672 49.7109 22.1797 48.2891 22.1797 45.9922C22.1797 45.6641 22.1719 45.3203 22.1562 44.9609C22.1562 42.1484 21.9922 39.2969 21.6641 36.4062C21.3359 36.4531 20.8047 36.4766 20.0703 36.4766C18.6641 36.4766 17.2422 36.3125 15.8047 35.9844C15.0703 35.8438 14.5781 35.7344 14.3281 35.6562ZM54.5703 35.2578V41.7969C54.5703 46.9688 56.3516 49.5547 59.9141 49.5547C63.2891 48.9922 64.9766 46.7422 64.9766 42.8047V40.1797C64.9766 37.1172 62.5938 35.3047 57.8281 34.7422H56.5391C55.2266 34.8359 54.5703 35.0078 54.5703 35.2578ZM54.7109 30.6406C54.7109 30.8125 55.3672 30.9453 56.6797 31.0391H57.9688C62.7344 30.5547 65.1172 29.0156 65.1172 26.4219V24.1953C65.1172 20.8672 63.4375 18.9688 60.0781 18.5C56.5 18.5 54.7109 20.6797 54.7109 25.0391V30.6406ZM39.7578 52.8125V49.9766C40.3047 49.8203 40.7188 49.3594 41 48.5938L41.8203 46.0391C42.4766 42.1484 42.8047 39.5391 42.8047 38.2109C42.8047 30.4297 42.1797 24.25 40.9297 19.6719C40.4453 18.6719 39.9141 18.0703 39.3359 17.8672V15.0547H50.9844V15.1016H64.3203C71.0703 15.1016 75.1016 18.2266 76.4141 24.4766C76.5078 25.1172 76.5547 25.7109 76.5547 26.2578C76.5547 26.5703 76.5391 26.8594 76.5078 27.125C76.5078 30.1406 74.2656 32.1641 69.7812 33.1953C72.7344 33.1953 75.1953 35.1641 77.1641 39.1016C77.6172 40.5859 77.8438 41.6172 77.8438 42.1953V42.5234C77.8438 47.1016 75.2812 50.2969 70.1562 52.1094C68.4219 52.625 65.9219 52.8828 62.6562 52.8828H62.3281L39.7578 52.8125ZM99.5 14.8906H99.8516C108.852 14.8906 115.07 18.2812 118.508 25.0625C119.93 28.4219 120.641 31.3672 120.641 33.8984C120.641 39.3672 118.023 44.5156 112.789 49.3438C108.898 51.875 104.469 53.1406 99.5 53.1406H97.3906C85 51.8594 78.5469 45.4453 78.0312 33.8984C78.0312 26.5078 82.0859 20.7266 90.1953 16.5547C93.4141 15.4453 96.5156 14.8906 99.5 14.8906ZM96.4062 48.8047C96.5625 48.8359 96.7266 48.8516 96.8984 48.8516C98.4609 48.8516 100.164 47.5781 102.008 45.0312C103.852 42.4844 105.203 39.1094 106.062 34.9062C106.547 32.6406 106.789 30.5156 106.789 28.5312C106.789 26.8438 106.523 24.875 105.992 22.625C105.461 20.375 104.344 19.1094 102.641 18.8281C102.453 18.7969 102.273 18.7812 102.102 18.7812C100.57 18.7812 98.8828 20.0547 97.0391 22.6016C95.1953 25.1328 93.8359 28.5078 92.9609 32.7266C92.4766 34.9922 92.2344 37.1172 92.2344 39.1016C92.2344 40.7891 92.5 42.7578 93.0312 45.0078C93.5625 47.2578 94.6875 48.5234 96.4062 48.8047ZM134.891 45.7109C137.266 47.5547 139.594 48.7031 141.875 49.1562H142.461C145.961 49.1562 147.805 45.2266 147.992 37.3672V35.0469C147.992 25.7812 146.531 20.0547 143.609 17.8672L143.516 15.4766L156.969 15.6172L156.992 18.4297C154.773 19.2266 153.664 24.1016 153.664 33.0547V36.0312C153.664 39.4375 154.398 41.7812 155.867 43.0625L157.062 44.6562C152.703 50.2812 147.062 53.0938 140.141 53.0938H138.453C135.172 52.9062 131.547 52.1562 127.578 50.8438C125.469 50.2188 123.469 49.2031 121.578 47.7969C122.219 45.2031 122.539 41.3438 122.539 36.2188V34.5547C122.555 33.8516 122.562 33.1641 122.562 32.4922C122.562 25.3047 121.781 20.5312 120.219 18.1719L120.172 15.5L136.859 15.6172L136.953 18.2188C134.938 19.375 133.93 24.4766 133.93 33.5234C133.93 38.8359 134.25 42.8984 134.891 45.7109ZM156.266 26.6094L156.219 26.0938V25.7422C156.359 19.3203 159.797 15.9062 166.531 15.5C167.031 15.4688 167.625 15.4531 168.312 15.4531C169 15.4531 169.781 15.4688 170.656 15.5L186.055 15.6172C186.43 15.6328 186.805 15.6406 187.18 15.6406C188.867 15.6406 190.969 15.3828 193.484 14.8672L193.93 17.1172C193.086 22.1328 189.828 24.875 184.156 25.3438L183.102 25.3672C182.852 27.3828 182.727 30.1016 182.727 33.5234C182.727 42.6172 183.734 48.2031 185.75 50.2812V52.8125H169.109V50.2812C170.594 48.8125 171.336 44.125 171.336 36.2188V34.5547C171.352 33.8516 171.359 33.1719 171.359 32.5156C171.359 29.2188 171.211 26.5391 170.914 24.4766C168.727 23.7891 166.844 23.4453 165.266 23.4453C163.609 23.4453 162.297 23.8281 161.328 24.5938C159.781 25.9531 158.242 26.6328 156.711 26.6328C156.555 26.6328 156.406 26.625 156.266 26.6094ZM222.734 45.7109C225.109 47.5547 227.438 48.7031 229.719 49.1562H230.305C233.805 49.1562 235.648 45.2266 235.836 37.3672V35.0469C235.836 25.7812 234.375 20.0547 231.453 17.8672L231.359 15.4766L244.812 15.6172L244.836 18.4297C242.617 19.2266 241.508 24.1016 241.508 33.0547V36.0312C241.508 39.4375 242.242 41.7812 243.711 43.0625L244.906 44.6562C240.547 50.2812 234.906 53.0938 227.984 53.0938H226.297C223.016 52.9062 219.391 52.1562 215.422 50.8438C213.312 50.2188 211.312 49.2031 209.422 47.7969C210.062 45.2031 210.383 41.3438 210.383 36.2188V34.5547C210.398 33.8516 210.406 33.1641 210.406 32.4922C210.406 25.3047 209.625 20.5312 208.062 18.1719L208.016 15.5L224.703 15.6172L224.797 18.2188C222.781 19.375 221.773 24.4766 221.773 33.5234C221.773 38.8359 222.094 42.8984 222.734 45.7109ZM260.281 14.6562L269.562 16.5312C270.391 16.6719 271.18 16.7422 271.93 16.7422C273.758 16.7422 275.461 16.1875 277.039 15.0781C277.648 15.9688 277.953 17.1094 277.953 18.5C277.953 19.1562 277.867 20.4141 277.695 22.2734C277.539 24.1172 275.555 25.4375 271.742 26.2344H271.32C267.789 26.2344 264.734 23.9453 262.156 19.3672C260.953 18.4141 259.523 17.9375 257.867 17.9375C256.242 18.3906 255.367 19.4531 255.242 21.125C255.242 23.2656 261.289 26.3516 273.383 30.3828C277.508 31.9453 280.242 34.5781 281.586 38.2812C281.789 39.2656 281.891 39.8906 281.891 40.1562C281.891 46.3438 278.195 50.4375 270.805 52.4375C268.648 52.8906 267.086 53.1172 266.117 53.1172H261.242C253.352 53.1172 248.352 50.5859 246.242 45.5234C245.977 45.0859 245.844 44.5859 245.844 44.0234C245.844 39.5078 248.211 37.25 252.945 37.25C255.883 37.3438 258.398 38.1953 260.492 39.8047C257.586 41.0859 256.133 42.5469 256.133 44.1875C256.133 44.7188 256.453 45.7422 257.094 47.2578C257.734 48.7734 259.906 49.5312 263.609 49.5312H263.984C267.797 49.0312 269.703 47.6406 269.703 45.3594V44.0234C269.703 40.2734 264.211 37.1016 253.227 34.5078C249.164 32.5391 246.664 29.9766 245.727 26.8203C245.711 26.4297 245.703 26.0547 245.703 25.6953C245.703 18.3359 250.562 14.6562 260.281 14.6562Z" fill="#F7B745"/>
<defs>
<filter id="filter0_d_39_2411" x="2.29688" y="18.6562" width="292.594" height="50.4844" filterUnits="userSpaceOnUse" color-interpolation-filters="sRGB">
<feFlood flood-opacity="0" result="BackgroundImageFix"/>
<feColorMatrix in="SourceAlpha" type="matrix" values="0 0 0 0 0 0 0 0 0 0 0 0 0 0 0 0 0 0 127 0" result="hardAlpha"/>
<feOffset dx="5" dy="6"/>
<feGaussianBlur stdDeviation="3"/>
<feComposite in2="hardAlpha" operator="out"/>
<feColorMatrix type="matrix" values="0 0 0 0 0 0 0 0 0 0 0 0 0 0 0 0 0 0 0.25 0"/>
<feBlend mode="normal" in2="BackgroundImageFix" result="effect1_dropShadow_39_2411"/>
<feBlend mode="normal" in="SourceGraphic" in2="effect1_dropShadow_39_2411" result="shape"/>
</filter>
</defs>
</svg>
