<svg width="382" height="61" viewBox="0 0 382 61" fill="none" xmlns="http://www.w3.org/2000/svg">
<g filter="url(#filter0_d_39_2304)">
<path d="M0.692625 36L21.6206 2.16H27.8126L38.1806 36H30.8846L28.2446 26.592L30.8846 28.656H10.7726L14.0846 26.592L8.51663 36H0.692625ZM23.7326 10.032L15.1886 24.72L14.1806 22.896H29.3006L27.9086 24.72L23.9246 10.032H23.7326ZM40.5705 36L43.4025 18.096C43.5625 17.04 43.7065 15.968 43.8345 14.88C43.9625 13.792 44.0425 12.72 44.0745 11.664H51.0825L50.7945 18.768H49.5465C50.1225 17.04 50.8585 15.616 51.7545 14.496C52.6825 13.376 53.7385 12.544 54.9225 12C56.1065 11.456 57.3865 11.184 58.7625 11.184C59.2105 11.184 59.6265 11.216 60.0105 11.28C60.4265 11.312 60.8105 11.36 61.1625 11.424L60.1065 17.808C59.5305 17.552 59.0025 17.392 58.5225 17.328C58.0745 17.264 57.4985 17.232 56.7945 17.232C55.6105 17.232 54.5385 17.488 53.5785 18C52.6185 18.48 51.8025 19.216 51.1305 20.208C50.4905 21.168 50.0585 22.384 49.8345 23.856L47.8665 36H40.5705ZM72.891 36.528C69.915 36.528 67.451 35.952 65.499 34.8C63.547 33.648 62.171 32.048 61.371 30C60.571 27.952 60.379 25.584 60.795 22.896C61.179 20.464 61.963 18.384 63.147 16.656C64.331 14.896 65.835 13.552 67.659 12.624C69.515 11.664 71.643 11.184 74.043 11.184C76.443 11.184 78.427 11.712 79.995 12.768C81.563 13.824 82.667 15.264 83.307 17.088C83.979 18.912 84.123 21.008 83.739 23.376L83.451 24.96H66.459L66.987 21.408H78.795L77.835 22.176C78.155 20.128 77.963 18.592 77.259 17.568C76.555 16.544 75.403 16.032 73.803 16.032C72.651 16.032 71.659 16.304 70.827 16.848C69.995 17.36 69.323 18.096 68.811 19.056C68.299 19.984 67.963 21.024 67.803 22.176L67.515 24.048C67.195 26.288 67.531 28.016 68.523 29.232C69.547 30.448 71.339 31.056 73.899 31.056C75.051 31.056 76.171 30.896 77.259 30.576C78.379 30.224 79.499 29.68 80.619 28.944L82.539 33.744C81.227 34.672 79.739 35.376 78.075 35.856C76.411 36.304 74.683 36.528 72.891 36.528ZM108.557 36L111.101 19.92L111.917 24.192L100.685 2.16H108.989L115.997 16.656H114.461L126.077 2.16H134.717L116.381 24.528L118.637 19.92L116.045 36H108.557ZM138.683 36.528C135.931 36.528 133.627 35.984 131.771 34.896C129.947 33.808 128.651 32.256 127.883 30.24C127.147 28.224 126.987 25.824 127.403 23.04C127.819 20.416 128.667 18.224 129.947 16.464C131.259 14.704 132.907 13.392 134.891 12.528C136.875 11.632 139.067 11.184 141.467 11.184C144.251 11.184 146.539 11.728 148.331 12.816C150.155 13.872 151.435 15.408 152.171 17.424C152.939 19.44 153.099 21.84 152.651 24.624C152.235 27.216 151.371 29.392 150.059 31.152C148.779 32.912 147.163 34.256 145.211 35.184C143.259 36.08 141.083 36.528 138.683 36.528ZM139.067 31.056C140.667 31.056 142.027 30.496 143.147 29.376C144.299 28.224 145.067 26.48 145.451 24.144C145.867 21.52 145.643 19.616 144.779 18.432C143.947 17.248 142.683 16.656 140.987 16.656C139.387 16.656 138.027 17.216 136.907 18.336C135.787 19.456 135.035 21.184 134.651 23.52C134.235 26.144 134.443 28.064 135.275 29.28C136.107 30.464 137.371 31.056 139.067 31.056ZM164.724 36.528C161.716 36.528 159.54 35.648 158.196 33.888C156.852 32.128 156.436 29.568 156.948 26.208L159.252 11.664H166.5L164.196 26.16C163.94 27.792 164.084 28.992 164.628 29.76C165.204 30.496 166.18 30.864 167.556 30.864C169.124 30.864 170.372 30.368 171.3 29.376C172.26 28.352 172.884 26.992 173.172 25.296L175.332 11.664H182.58L178.74 36H171.684L172.404 31.344H173.124C172.196 32.976 171.028 34.256 169.62 35.184C168.212 36.08 166.58 36.528 164.724 36.528ZM198.739 36L204.115 2.16H218.755C222.915 2.16 225.907 3.104 227.731 4.992C229.587 6.848 230.243 9.488 229.699 12.912C229.379 14.896 228.643 16.624 227.491 18.096C226.339 19.536 224.835 20.656 222.979 21.456C221.155 22.224 219.091 22.608 216.787 22.608L216.979 21.552H218.755C220.131 21.552 221.283 21.936 222.211 22.704C223.139 23.44 223.875 24.496 224.419 25.872L228.067 36H220.243L216.451 25.104C216.163 24.176 215.619 23.568 214.819 23.28C214.051 22.96 213.123 22.8 212.035 22.8H208.291L206.227 36H198.739ZM209.155 17.424H216.115C218.003 17.424 219.475 17.04 220.531 16.272C221.587 15.472 222.227 14.336 222.451 12.864C222.707 11.2 222.387 9.968 221.491 9.168C220.627 8.368 219.219 7.968 217.267 7.968H210.643L209.155 17.424ZM244.547 36.528C241.571 36.528 239.107 35.952 237.155 34.8C235.203 33.648 233.827 32.048 233.027 30C232.227 27.952 232.035 25.584 232.451 22.896C232.835 20.464 233.619 18.384 234.803 16.656C235.987 14.896 237.491 13.552 239.315 12.624C241.171 11.664 243.299 11.184 245.699 11.184C248.099 11.184 250.083 11.712 251.651 12.768C253.219 13.824 254.323 15.264 254.963 17.088C255.635 18.912 255.779 21.008 255.395 23.376L255.107 24.96H238.115L238.643 21.408H250.451L249.491 22.176C249.811 20.128 249.619 18.592 248.915 17.568C248.211 16.544 247.059 16.032 245.459 16.032C244.307 16.032 243.315 16.304 242.483 16.848C241.651 17.36 240.979 18.096 240.467 19.056C239.955 19.984 239.619 21.024 239.459 22.176L239.171 24.048C238.851 26.288 239.187 28.016 240.179 29.232C241.203 30.448 242.995 31.056 245.555 31.056C246.707 31.056 247.827 30.896 248.915 30.576C250.035 30.224 251.155 29.68 252.275 28.944L254.195 33.744C252.883 34.672 251.395 35.376 249.731 35.856C248.067 36.304 246.339 36.528 244.547 36.528ZM268.058 36.528C265.85 36.528 263.962 35.968 262.394 34.848C260.858 33.728 259.77 32.16 259.13 30.144C258.49 28.096 258.378 25.728 258.794 23.04C259.434 19.104 260.89 16.144 263.162 14.16C265.434 12.176 268.138 11.184 271.274 11.184C273.226 11.184 274.89 11.648 276.266 12.576C277.674 13.472 278.522 14.688 278.81 16.224L278.33 16.416L279.626 11.664H286.586C286.33 12.72 286.074 13.792 285.818 14.88C285.594 15.936 285.386 16.976 285.194 18L282.362 36H275.162L275.93 31.248H276.698C275.93 32.848 274.81 34.128 273.338 35.088C271.898 36.048 270.138 36.528 268.058 36.528ZM270.602 31.056C272.234 31.056 273.626 30.496 274.778 29.376C275.93 28.224 276.698 26.48 277.082 24.144C277.498 21.52 277.274 19.616 276.41 18.432C275.546 17.248 274.25 16.656 272.522 16.656C270.89 16.656 269.498 17.216 268.346 18.336C267.194 19.456 266.426 21.184 266.042 23.52C265.626 26.144 265.85 28.064 266.714 29.28C267.578 30.464 268.874 31.056 270.602 31.056ZM298.386 36.528C296.178 36.528 294.29 35.968 292.722 34.848C291.186 33.728 290.098 32.16 289.458 30.144C288.818 28.096 288.706 25.728 289.122 23.04C289.762 19.104 291.218 16.144 293.49 14.16C295.762 12.176 298.466 11.184 301.602 11.184C303.554 11.184 305.218 11.648 306.594 12.576C308.002 13.472 308.85 14.688 309.138 16.224H308.562L311.058 0.671997H318.306L312.69 36H305.538L306.306 31.248H307.026C306.258 32.848 305.138 34.128 303.666 35.088C302.226 36.048 300.466 36.528 298.386 36.528ZM300.93 31.056C302.562 31.056 303.954 30.496 305.106 29.376C306.258 28.224 307.026 26.48 307.41 24.144C307.826 21.52 307.602 19.616 306.738 18.432C305.874 17.248 304.578 16.656 302.85 16.656C301.218 16.656 299.826 17.216 298.674 18.336C297.522 19.456 296.754 21.184 296.37 23.52C295.954 26.144 296.178 28.064 297.042 29.28C297.906 30.464 299.202 31.056 300.93 31.056ZM316.714 46.896L315.61 41.232C317.178 40.944 318.506 40.608 319.594 40.224C320.682 39.84 321.61 39.328 322.378 38.688C323.146 38.08 323.834 37.28 324.442 36.288L326.074 33.456L325.738 36.24L319.018 11.664H326.458L330.586 29.28H329.098L338.938 11.664H346.426L331.45 36.96C330.33 38.784 329.21 40.288 328.09 41.472C327.002 42.688 325.866 43.648 324.682 44.352C323.53 45.056 322.298 45.6 320.986 45.984C319.674 46.368 318.25 46.672 316.714 46.896ZM351.14 25.296L351.524 23.04C351.652 22.112 351.876 21.248 352.196 20.448C352.548 19.616 353.06 18.784 353.732 17.952C354.404 17.12 355.268 16.24 356.324 15.312C356.932 14.768 357.476 14.224 357.956 13.68C358.436 13.104 358.836 12.512 359.156 11.904C359.476 11.296 359.636 10.688 359.636 10.08C359.636 9.312 359.316 8.72 358.676 8.304C358.068 7.856 357.188 7.632 356.036 7.632C354.756 7.632 353.46 7.84 352.148 8.256C350.836 8.672 349.588 9.216 348.404 9.888L349.364 3.792C350.58 3.12 351.988 2.592 353.588 2.208C355.22 1.824 356.74 1.632 358.148 1.632C359.94 1.632 361.508 1.936 362.852 2.544C364.196 3.12 365.236 3.936 365.972 4.992C366.74 6.016 367.124 7.232 367.124 8.64C367.124 9.952 366.852 11.168 366.308 12.288C365.796 13.408 365.092 14.432 364.196 15.36C363.3 16.256 362.276 17.088 361.124 17.856C359.364 19.136 358.116 20.24 357.38 21.168C356.644 22.096 356.164 22.992 355.94 23.856L355.46 25.296H351.14ZM347.684 36L348.932 28.32H356.708L355.508 36H347.684Z" fill="#3E256C"/>
</g>
<defs>
<filter id="filter0_d_39_2304" x="0.692383" y="0.671997" width="380.432" height="60.224" filterUnits="userSpaceOnUse" color-interpolation-filters="sRGB">
<feFlood flood-opacity="0" result="BackgroundImageFix"/>
<feColorMatrix in="SourceAlpha" type="matrix" values="0 0 0 0 0 0 0 0 0 0 0 0 0 0 0 0 0 0 127 0" result="hardAlpha"/>
<feOffset dx="7" dy="7"/>
<feGaussianBlur stdDeviation="3.5"/>
<feComposite in2="hardAlpha" operator="out"/>
<feColorMatrix type="matrix" values="0 0 0 0 0 0 0 0 0 0 0 0 0 0 0 0 0 0 0.25 0"/>
<feBlend mode="normal" in2="BackgroundImageFix" result="effect1_dropShadow_39_2304"/>
<feBlend mode="normal" in="SourceGraphic" in2="effect1_dropShadow_39_2304" result="shape"/>
</filter>
</defs>
</svg>
