<svg width="431" height="70" viewBox="0 0 431 70" fill="none" xmlns="http://www.w3.org/2000/svg">
<g filter="url(#filter0_d_39_2394)">
<path d="M26.9766 23.25C21.0859 24.1719 17.9844 28.6172 17.6719 36.5859C17.6719 47.6328 20.2656 53.1562 25.4531 53.1562H26.1094C27.0156 53.1562 28.1172 51.4766 29.4141 48.1172C29.8516 47.3047 30.0703 46.3672 30.0703 45.3047C30.0703 44.1641 29.7656 42.6953 29.1562 40.8984C30.0938 40.8672 30.7734 40.8516 31.1953 40.8516C36.4453 40.8516 39.5391 42.0938 40.4766 44.5781C40.4922 44.8125 40.5 45.0312 40.5 45.2344C40.5 52.1406 35.1016 56.1016 24.3047 57.1172H23.2734C13.9922 57.1172 7.44531 52.5312 3.63281 43.3594C3.16406 41.0938 2.92969 39.0469 2.92969 37.2188V35.5781C2.92969 32.2344 4.67188 28.4453 8.15625 24.2109C11.3906 20.7734 16.1328 19.0547 22.3828 19.0547C22.7266 19.0547 23.0703 19.0625 23.4141 19.0781C24.0391 19.0781 24.6719 19.0859 25.3125 19.1016C32.5469 19.1953 37.1562 21.1875 39.1406 25.0781C39.3594 25.4219 39.4844 26.1953 39.5156 27.3984V27.4453C39.3125 32.1797 36.8984 34.5469 32.2734 34.5469H31.8984C28.7109 33.9531 27.1172 32.0547 27.1172 28.8516V28.3828C27.2734 27.5078 27.8828 26.5547 28.9453 25.5234L30.7266 26.2031L31.1484 26.2734C31.6797 26.0234 31.9844 25.7266 32.0625 25.3828V25.3594C31.2344 23.9219 29.8516 23.2031 27.9141 23.2031C27.6016 23.2031 27.2891 23.2188 26.9766 23.25ZM61.6641 18.8906H62.0156C71.0156 18.8906 77.2344 22.2812 80.6719 29.0625C82.0938 32.4219 82.8047 35.3672 82.8047 37.8984C82.8047 43.3672 80.1875 48.5156 74.9531 53.3438C71.0625 55.875 66.6328 57.1406 61.6641 57.1406H59.5547C47.1641 55.8594 40.7109 49.4453 40.1953 37.8984C40.1953 30.5078 44.25 24.7266 52.3594 20.5547C55.5781 19.4453 58.6797 18.8906 61.6641 18.8906ZM58.5703 52.8047C58.7266 52.8359 58.8906 52.8516 59.0625 52.8516C60.625 52.8516 62.3281 51.5781 64.1719 49.0312C66.0156 46.4844 67.3672 43.1094 68.2266 38.9062C68.7109 36.6406 68.9531 34.5156 68.9531 32.5312C68.9531 30.8438 68.6875 28.875 68.1562 26.625C67.625 24.375 66.5078 23.1094 64.8047 22.8281C64.6172 22.7969 64.4375 22.7812 64.2656 22.7812C62.7344 22.7812 61.0469 24.0547 59.2031 26.6016C57.3594 29.1328 56 32.5078 55.125 36.7266C54.6406 38.9922 54.3984 41.1172 54.3984 43.1016C54.3984 44.7891 54.6641 46.7578 55.1953 49.0078C55.7266 51.2578 56.8516 52.5234 58.5703 52.8047ZM123.375 19.0781L123.516 21.2578C121.766 23.1328 120.891 26.8516 120.891 32.4141C120.891 43.1641 121.914 50.1484 123.961 53.3672L125.625 54.1875C125.688 55.1094 125.719 55.7266 125.719 56.0391C125.719 56.5859 125.383 56.8594 124.711 56.8594L124.688 56.8125H107.461L107.273 53.8828C107.789 53.9922 108.055 54.0469 108.07 54.0469C108.852 54.0469 109.414 51.6953 109.758 46.9922V42.7031C109.758 39.7031 109.508 36.3984 109.008 32.7891C106.727 36.7109 103.836 45.0938 100.336 57.9375C98.3359 53.9219 96.5938 49.7656 95.1094 45.4688C93.625 41.1719 92.1406 36.5938 90.6562 31.7344C89.5625 36.8125 89.0156 41.9062 89.0156 47.0156C89.0156 50.2344 90.3828 52.6484 93.1172 54.2578L93.0469 56.8125H79.7109V54.2812C83.3516 52.4062 85.1719 44.125 85.1719 29.4375C84.875 25.7656 84.0703 23.2812 82.7578 21.9844V18.9844L100.664 19.0547L100.641 21.5391C99.9688 22.6484 99.6328 23.5 99.6328 24.0938C99.6328 25.8281 100.062 27.8203 100.922 30.0703C101.766 32.7266 102.43 34.6797 102.914 35.9297L107.812 25.1016C107.453 23.6016 106.602 22.5859 105.258 22.0547L105.234 19.0312L123.375 19.0781ZM140.086 42.5625C140.367 48.6719 141.336 52.5781 142.992 54.2812V56.8125H126.352V54.2812C127.836 52.8125 128.578 48.125 128.578 40.2188V38.5547C128.594 37.8359 128.602 37.1328 128.602 36.4453C128.602 29.1328 127.82 24.2969 126.258 21.9375L126.211 19.2656L141.023 19.3828C144.352 19.2109 146.539 19.125 147.586 19.125C157.039 19.125 162.109 22.4062 162.797 28.9688V32.4141C162.469 36.1172 159.633 39.1953 154.289 41.6484C152.07 42.1172 150.305 42.3516 148.992 42.3516L140.086 42.5625ZM139.969 38.5078C147.047 38.4609 150.586 36.0547 150.586 31.2891C150.586 31.0547 150.578 30.8125 150.562 30.5625V27.1641C150.562 24.4922 148.719 22.9688 145.031 22.5938C143.297 22.6875 142.102 23.1406 141.445 23.9531C140.461 26.3281 139.969 30.8516 139.969 37.5234V38.5078ZM176.414 34.5703C178.773 32.9922 181.203 32.2031 183.703 32.2031C186.141 32.2031 188.32 33.1484 190.242 35.0391C190.805 35.8672 191.086 36.7734 191.086 37.7578C191.086 39.3672 190.219 41.4062 188.484 43.875C186 41.7969 183.844 40.5156 182.016 40.0312C180.844 39.7656 179.773 39.6328 178.805 39.6328C177.82 39.6328 177.07 39.7266 176.555 39.9141L176.695 45.75C176.695 51.1094 178.789 53.8438 182.977 53.9531C184.492 53.8438 185.68 51.4141 186.539 46.6641L197.062 46.2891C196.891 51.2109 194.359 54.7734 189.469 56.9766L163.219 56.8125H162.398V53.9531C162.898 53.7969 163.273 53.4219 163.523 52.8281C164.742 47.6406 165.352 42.6562 165.352 37.875C165.352 32.5781 164.688 27.5156 163.359 22.6875C163.156 22.2969 162.836 22.0234 162.398 21.8672V19.0078C174.773 18.9766 181.797 18.9609 183.469 18.9609H184.148C192.336 19.8672 196.43 22.3047 196.43 26.2734V26.9297L186.234 29.8359C185.406 24.9453 184 22.5 182.016 22.5H181.359C178.5 22.5 176.836 25.875 176.367 32.625L176.414 34.5703ZM196.711 30.6094L196.664 30.0938V29.7422C196.805 23.3203 200.242 19.9062 206.977 19.5C207.477 19.4688 208.07 19.4531 208.758 19.4531C209.445 19.4531 210.227 19.4688 211.102 19.5L226.5 19.6172C226.875 19.6328 227.25 19.6406 227.625 19.6406C229.312 19.6406 231.414 19.3828 233.93 18.8672L234.375 21.1172C233.531 26.1328 230.273 28.875 224.602 29.3438L223.547 29.3672C223.297 31.3828 223.172 34.1016 223.172 37.5234C223.172 46.6172 224.18 52.2031 226.195 54.2812V56.8125H209.555V54.2812C211.039 52.8125 211.781 48.125 211.781 40.2188V38.5547C211.797 37.8516 211.805 37.1719 211.805 36.5156C211.805 33.2188 211.656 30.5391 211.359 28.4766C209.172 27.7891 207.289 27.4453 205.711 27.4453C204.055 27.4453 202.742 27.8281 201.773 28.5938C200.227 29.9531 198.688 30.6328 197.156 30.6328C197 30.6328 196.852 30.625 196.711 30.6094ZM252.117 54.2812V56.8125H235.477V54.2812C236.961 52.8125 237.703 48.125 237.703 40.2188V38.5547C237.719 37.8203 237.727 37.1094 237.727 36.4219C237.727 28.9688 236.945 24.0625 235.383 21.7031L235.336 19.0312L252.023 19.1484L252.117 21.75C250.102 22.9062 249.094 28.0859 249.094 37.2891C249.094 46.5391 250.102 52.2031 252.117 54.2812ZM251.414 30.6094L251.367 30.0938V29.7422C251.508 23.3203 254.945 19.9062 261.68 19.5C262.18 19.4688 262.773 19.4531 263.461 19.4531C264.148 19.4531 264.93 19.4688 265.805 19.5L281.203 19.6172C281.578 19.6328 281.953 19.6406 282.328 19.6406C284.016 19.6406 286.117 19.3828 288.633 18.8672L289.078 21.1172C288.234 26.1328 284.977 28.875 279.305 29.3438L278.25 29.3672C278 31.3828 277.875 34.1016 277.875 37.5234C277.875 46.6172 278.883 52.2031 280.898 54.2812V56.8125H264.258V54.2812C265.742 52.8125 266.484 48.125 266.484 40.2188V38.5547C266.5 37.8516 266.508 37.1719 266.508 36.5156C266.508 33.2188 266.359 30.5391 266.062 28.4766C263.875 27.7891 261.992 27.4453 260.414 27.4453C258.758 27.4453 257.445 27.8281 256.477 28.5938C254.93 29.9531 253.391 30.6328 251.859 30.6328C251.703 30.6328 251.555 30.625 251.414 30.6094ZM306.82 54.2812V56.8125H290.18V54.2812C291.664 52.8125 292.406 48.125 292.406 40.2188V38.5547C292.422 37.8203 292.43 37.1094 292.43 36.4219C292.43 28.9688 291.648 24.0625 290.086 21.7031L290.039 19.0312L306.727 19.1484L306.82 21.75C304.805 22.9062 303.797 28.0859 303.797 37.2891C303.797 46.5391 304.805 52.2031 306.82 54.2812ZM327.258 18.8906H327.609C336.609 18.8906 342.828 22.2812 346.266 29.0625C347.688 32.4219 348.398 35.3672 348.398 37.8984C348.398 43.3672 345.781 48.5156 340.547 53.3438C336.656 55.875 332.227 57.1406 327.258 57.1406H325.148C312.758 55.8594 306.305 49.4453 305.789 37.8984C305.789 30.5078 309.844 24.7266 317.953 20.5547C321.172 19.4453 324.273 18.8906 327.258 18.8906ZM324.164 52.8047C324.32 52.8359 324.484 52.8516 324.656 52.8516C326.219 52.8516 327.922 51.5781 329.766 49.0312C331.609 46.4844 332.961 43.1094 333.82 38.9062C334.305 36.6406 334.547 34.5156 334.547 32.5312C334.547 30.8438 334.281 28.875 333.75 26.625C333.219 24.375 332.102 23.1094 330.398 22.8281C330.211 22.7969 330.031 22.7812 329.859 22.7812C328.328 22.7812 326.641 24.0547 324.797 26.6016C322.953 29.1328 321.594 32.5078 320.719 36.7266C320.234 38.9922 319.992 41.1172 319.992 43.1016C319.992 44.7891 320.258 46.7578 320.789 49.0078C321.32 51.2578 322.445 52.5234 324.164 52.8047ZM363.609 21.3984C362.719 22.0234 362.273 22.7344 362.273 23.5312C362.273 23.7188 362.297 23.9219 362.344 24.1406V24.3047C362.344 26.8203 364.586 29.5703 369.07 32.5547C371.07 34.1641 373.125 36.5391 375.234 39.6797V36.5391C375.234 28.0859 373.898 23.0469 371.227 21.4219L371.203 18.9609L384.773 19.0078L384.914 21.6562C381.711 21.6562 380.109 28.2891 380.109 41.5547C380.109 48.7734 381.18 53.0312 383.32 54.3281V56.8125H370.477L370.336 54.6562C370.805 53.3906 371.039 52.3906 371.039 51.6562C369.805 47.1406 366.5 43.2734 361.125 40.0547C358.266 37.7109 356.492 35.8047 355.805 34.3359L355.734 34.8984V44.9062C355.844 49.9531 357.508 53.2734 360.727 54.8672L360.656 56.8125H346.852L346.875 53.9531C349.297 53.7812 350.508 48.7578 350.508 38.8828V36.5391C350.508 29.1953 349.32 24.125 346.945 21.3281L346.969 19.0078L363.516 18.9844L363.609 21.3984ZM397.992 18.6562L407.273 20.5312C408.102 20.6719 408.891 20.7422 409.641 20.7422C411.469 20.7422 413.172 20.1875 414.75 19.0781C415.359 19.9688 415.664 21.1094 415.664 22.5C415.664 23.1562 415.578 24.4141 415.406 26.2734C415.25 28.1172 413.266 29.4375 409.453 30.2344H409.031C405.5 30.2344 402.445 27.9453 399.867 23.3672C398.664 22.4141 397.234 21.9375 395.578 21.9375C393.953 22.3906 393.078 23.4531 392.953 25.125C392.953 27.2656 399 30.3516 411.094 34.3828C415.219 35.9453 417.953 38.5781 419.297 42.2812C419.5 43.2656 419.602 43.8906 419.602 44.1562C419.602 50.3438 415.906 54.4375 408.516 56.4375C406.359 56.8906 404.797 57.1172 403.828 57.1172H398.953C391.062 57.1172 386.062 54.5859 383.953 49.5234C383.688 49.0859 383.555 48.5859 383.555 48.0234C383.555 43.5078 385.922 41.25 390.656 41.25C393.594 41.3438 396.109 42.1953 398.203 43.8047C395.297 45.0859 393.844 46.5469 393.844 48.1875C393.844 48.7188 394.164 49.7422 394.805 51.2578C395.445 52.7734 397.617 53.5312 401.32 53.5312H401.695C405.508 53.0312 407.414 51.6406 407.414 49.3594V48.0234C407.414 44.2734 401.922 41.1016 390.938 38.5078C386.875 36.5391 384.375 33.9766 383.438 30.8203C383.422 30.4297 383.414 30.0547 383.414 29.6953C383.414 22.3359 388.273 18.6562 397.992 18.6562Z" fill="#DE3500"/>
</g>
<path d="M24.9766 19.25C19.0859 20.1719 15.9844 24.6172 15.6719 32.5859C15.6719 43.6328 18.2656 49.1562 23.4531 49.1562H24.1094C25.0156 49.1562 26.1172 47.4766 27.4141 44.1172C27.8516 43.3047 28.0703 42.3672 28.0703 41.3047C28.0703 40.1641 27.7656 38.6953 27.1562 36.8984C28.0938 36.8672 28.7734 36.8516 29.1953 36.8516C34.4453 36.8516 37.5391 38.0938 38.4766 40.5781C38.4922 40.8125 38.5 41.0312 38.5 41.2344C38.5 48.1406 33.1016 52.1016 22.3047 53.1172H21.2734C11.9922 53.1172 5.44531 48.5312 1.63281 39.3594C1.16406 37.0938 0.929688 35.0469 0.929688 33.2188V31.5781C0.929688 28.2344 2.67187 24.4453 6.15625 20.2109C9.39062 16.7734 14.1328 15.0547 20.3828 15.0547C20.7266 15.0547 21.0703 15.0625 21.4141 15.0781C22.0391 15.0781 22.6719 15.0859 23.3125 15.1016C30.5469 15.1953 35.1562 17.1875 37.1406 21.0781C37.3594 21.4219 37.4844 22.1953 37.5156 23.3984V23.4453C37.3125 28.1797 34.8984 30.5469 30.2734 30.5469H29.8984C26.7109 29.9531 25.1172 28.0547 25.1172 24.8516V24.3828C25.2734 23.5078 25.8828 22.5547 26.9453 21.5234L28.7266 22.2031L29.1484 22.2734C29.6797 22.0234 29.9844 21.7266 30.0625 21.3828V21.3594C29.2344 19.9219 27.8516 19.2031 25.9141 19.2031C25.6016 19.2031 25.2891 19.2188 24.9766 19.25ZM59.6641 14.8906H60.0156C69.0156 14.8906 75.2344 18.2812 78.6719 25.0625C80.0938 28.4219 80.8047 31.3672 80.8047 33.8984C80.8047 39.3672 78.1875 44.5156 72.9531 49.3438C69.0625 51.875 64.6328 53.1406 59.6641 53.1406H57.5547C45.1641 51.8594 38.7109 45.4453 38.1953 33.8984C38.1953 26.5078 42.25 20.7266 50.3594 16.5547C53.5781 15.4453 56.6797 14.8906 59.6641 14.8906ZM56.5703 48.8047C56.7266 48.8359 56.8906 48.8516 57.0625 48.8516C58.625 48.8516 60.3281 47.5781 62.1719 45.0312C64.0156 42.4844 65.3672 39.1094 66.2266 34.9062C66.7109 32.6406 66.9531 30.5156 66.9531 28.5312C66.9531 26.8438 66.6875 24.875 66.1562 22.625C65.625 20.375 64.5078 19.1094 62.8047 18.8281C62.6172 18.7969 62.4375 18.7812 62.2656 18.7812C60.7344 18.7812 59.0469 20.0547 57.2031 22.6016C55.3594 25.1328 54 28.5078 53.125 32.7266C52.6406 34.9922 52.3984 37.1172 52.3984 39.1016C52.3984 40.7891 52.6641 42.7578 53.1953 45.0078C53.7266 47.2578 54.8516 48.5234 56.5703 48.8047ZM121.375 15.0781L121.516 17.2578C119.766 19.1328 118.891 22.8516 118.891 28.4141C118.891 39.1641 119.914 46.1484 121.961 49.3672L123.625 50.1875C123.688 51.1094 123.719 51.7266 123.719 52.0391C123.719 52.5859 123.383 52.8594 122.711 52.8594L122.688 52.8125H105.461L105.273 49.8828C105.789 49.9922 106.055 50.0469 106.07 50.0469C106.852 50.0469 107.414 47.6953 107.758 42.9922V38.7031C107.758 35.7031 107.508 32.3984 107.008 28.7891C104.727 32.7109 101.836 41.0938 98.3359 53.9375C96.3359 49.9219 94.5938 45.7656 93.1094 41.4688C91.625 37.1719 90.1406 32.5938 88.6562 27.7344C87.5625 32.8125 87.0156 37.9062 87.0156 43.0156C87.0156 46.2344 88.3828 48.6484 91.1172 50.2578L91.0469 52.8125H77.7109V50.2812C81.3516 48.4062 83.1719 40.125 83.1719 25.4375C82.875 21.7656 82.0703 19.2812 80.7578 17.9844V14.9844L98.6641 15.0547L98.6406 17.5391C97.9688 18.6484 97.6328 19.5 97.6328 20.0938C97.6328 21.8281 98.0625 23.8203 98.9219 26.0703C99.7656 28.7266 100.43 30.6797 100.914 31.9297L105.812 21.1016C105.453 19.6016 104.602 18.5859 103.258 18.0547L103.234 15.0312L121.375 15.0781ZM138.086 38.5625C138.367 44.6719 139.336 48.5781 140.992 50.2812V52.8125H124.352V50.2812C125.836 48.8125 126.578 44.125 126.578 36.2188V34.5547C126.594 33.8359 126.602 33.1328 126.602 32.4453C126.602 25.1328 125.82 20.2969 124.258 17.9375L124.211 15.2656L139.023 15.3828C142.352 15.2109 144.539 15.125 145.586 15.125C155.039 15.125 160.109 18.4062 160.797 24.9688V28.4141C160.469 32.1172 157.633 35.1953 152.289 37.6484C150.07 38.1172 148.305 38.3516 146.992 38.3516L138.086 38.5625ZM137.969 34.5078C145.047 34.4609 148.586 32.0547 148.586 27.2891C148.586 27.0547 148.578 26.8125 148.562 26.5625V23.1641C148.562 20.4922 146.719 18.9688 143.031 18.5938C141.297 18.6875 140.102 19.1406 139.445 19.9531C138.461 22.3281 137.969 26.8516 137.969 33.5234V34.5078ZM174.414 30.5703C176.773 28.9922 179.203 28.2031 181.703 28.2031C184.141 28.2031 186.32 29.1484 188.242 31.0391C188.805 31.8672 189.086 32.7734 189.086 33.7578C189.086 35.3672 188.219 37.4062 186.484 39.875C184 37.7969 181.844 36.5156 180.016 36.0312C178.844 35.7656 177.773 35.6328 176.805 35.6328C175.82 35.6328 175.07 35.7266 174.555 35.9141L174.695 41.75C174.695 47.1094 176.789 49.8438 180.977 49.9531C182.492 49.8438 183.68 47.4141 184.539 42.6641L195.062 42.2891C194.891 47.2109 192.359 50.7734 187.469 52.9766L161.219 52.8125H160.398V49.9531C160.898 49.7969 161.273 49.4219 161.523 48.8281C162.742 43.6406 163.352 38.6562 163.352 33.875C163.352 28.5781 162.688 23.5156 161.359 18.6875C161.156 18.2969 160.836 18.0234 160.398 17.8672V15.0078C172.773 14.9766 179.797 14.9609 181.469 14.9609H182.148C190.336 15.8672 194.43 18.3047 194.43 22.2734V22.9297L184.234 25.8359C183.406 20.9453 182 18.5 180.016 18.5H179.359C176.5 18.5 174.836 21.875 174.367 28.625L174.414 30.5703ZM194.711 26.6094L194.664 26.0938V25.7422C194.805 19.3203 198.242 15.9062 204.977 15.5C205.477 15.4688 206.07 15.4531 206.758 15.4531C207.445 15.4531 208.227 15.4688 209.102 15.5L224.5 15.6172C224.875 15.6328 225.25 15.6406 225.625 15.6406C227.312 15.6406 229.414 15.3828 231.93 14.8672L232.375 17.1172C231.531 22.1328 228.273 24.875 222.602 25.3438L221.547 25.3672C221.297 27.3828 221.172 30.1016 221.172 33.5234C221.172 42.6172 222.18 48.2031 224.195 50.2812V52.8125H207.555V50.2812C209.039 48.8125 209.781 44.125 209.781 36.2188V34.5547C209.797 33.8516 209.805 33.1719 209.805 32.5156C209.805 29.2188 209.656 26.5391 209.359 24.4766C207.172 23.7891 205.289 23.4453 203.711 23.4453C202.055 23.4453 200.742 23.8281 199.773 24.5938C198.227 25.9531 196.688 26.6328 195.156 26.6328C195 26.6328 194.852 26.625 194.711 26.6094ZM250.117 50.2812V52.8125H233.477V50.2812C234.961 48.8125 235.703 44.125 235.703 36.2188V34.5547C235.719 33.8203 235.727 33.1094 235.727 32.4219C235.727 24.9688 234.945 20.0625 233.383 17.7031L233.336 15.0312L250.023 15.1484L250.117 17.75C248.102 18.9062 247.094 24.0859 247.094 33.2891C247.094 42.5391 248.102 48.2031 250.117 50.2812ZM249.414 26.6094L249.367 26.0938V25.7422C249.508 19.3203 252.945 15.9062 259.68 15.5C260.18 15.4688 260.773 15.4531 261.461 15.4531C262.148 15.4531 262.93 15.4688 263.805 15.5L279.203 15.6172C279.578 15.6328 279.953 15.6406 280.328 15.6406C282.016 15.6406 284.117 15.3828 286.633 14.8672L287.078 17.1172C286.234 22.1328 282.977 24.875 277.305 25.3438L276.25 25.3672C276 27.3828 275.875 30.1016 275.875 33.5234C275.875 42.6172 276.883 48.2031 278.898 50.2812V52.8125H262.258V50.2812C263.742 48.8125 264.484 44.125 264.484 36.2188V34.5547C264.5 33.8516 264.508 33.1719 264.508 32.5156C264.508 29.2188 264.359 26.5391 264.062 24.4766C261.875 23.7891 259.992 23.4453 258.414 23.4453C256.758 23.4453 255.445 23.8281 254.477 24.5938C252.93 25.9531 251.391 26.6328 249.859 26.6328C249.703 26.6328 249.555 26.625 249.414 26.6094ZM304.82 50.2812V52.8125H288.18V50.2812C289.664 48.8125 290.406 44.125 290.406 36.2188V34.5547C290.422 33.8203 290.43 33.1094 290.43 32.4219C290.43 24.9688 289.648 20.0625 288.086 17.7031L288.039 15.0312L304.727 15.1484L304.82 17.75C302.805 18.9062 301.797 24.0859 301.797 33.2891C301.797 42.5391 302.805 48.2031 304.82 50.2812ZM325.258 14.8906H325.609C334.609 14.8906 340.828 18.2812 344.266 25.0625C345.688 28.4219 346.398 31.3672 346.398 33.8984C346.398 39.3672 343.781 44.5156 338.547 49.3438C334.656 51.875 330.227 53.1406 325.258 53.1406H323.148C310.758 51.8594 304.305 45.4453 303.789 33.8984C303.789 26.5078 307.844 20.7266 315.953 16.5547C319.172 15.4453 322.273 14.8906 325.258 14.8906ZM322.164 48.8047C322.32 48.8359 322.484 48.8516 322.656 48.8516C324.219 48.8516 325.922 47.5781 327.766 45.0312C329.609 42.4844 330.961 39.1094 331.82 34.9062C332.305 32.6406 332.547 30.5156 332.547 28.5312C332.547 26.8438 332.281 24.875 331.75 22.625C331.219 20.375 330.102 19.1094 328.398 18.8281C328.211 18.7969 328.031 18.7812 327.859 18.7812C326.328 18.7812 324.641 20.0547 322.797 22.6016C320.953 25.1328 319.594 28.5078 318.719 32.7266C318.234 34.9922 317.992 37.1172 317.992 39.1016C317.992 40.7891 318.258 42.7578 318.789 45.0078C319.32 47.2578 320.445 48.5234 322.164 48.8047ZM361.609 17.3984C360.719 18.0234 360.273 18.7344 360.273 19.5312C360.273 19.7188 360.297 19.9219 360.344 20.1406V20.3047C360.344 22.8203 362.586 25.5703 367.07 28.5547C369.07 30.1641 371.125 32.5391 373.234 35.6797V32.5391C373.234 24.0859 371.898 19.0469 369.227 17.4219L369.203 14.9609L382.773 15.0078L382.914 17.6562C379.711 17.6562 378.109 24.2891 378.109 37.5547C378.109 44.7734 379.18 49.0312 381.32 50.3281V52.8125H368.477L368.336 50.6562C368.805 49.3906 369.039 48.3906 369.039 47.6562C367.805 43.1406 364.5 39.2734 359.125 36.0547C356.266 33.7109 354.492 31.8047 353.805 30.3359L353.734 30.8984V40.9062C353.844 45.9531 355.508 49.2734 358.727 50.8672L358.656 52.8125H344.852L344.875 49.9531C347.297 49.7812 348.508 44.7578 348.508 34.8828V32.5391C348.508 25.1953 347.32 20.125 344.945 17.3281L344.969 15.0078L361.516 14.9844L361.609 17.3984ZM395.992 14.6562L405.273 16.5312C406.102 16.6719 406.891 16.7422 407.641 16.7422C409.469 16.7422 411.172 16.1875 412.75 15.0781C413.359 15.9688 413.664 17.1094 413.664 18.5C413.664 19.1562 413.578 20.4141 413.406 22.2734C413.25 24.1172 411.266 25.4375 407.453 26.2344H407.031C403.5 26.2344 400.445 23.9453 397.867 19.3672C396.664 18.4141 395.234 17.9375 393.578 17.9375C391.953 18.3906 391.078 19.4531 390.953 21.125C390.953 23.2656 397 26.3516 409.094 30.3828C413.219 31.9453 415.953 34.5781 417.297 38.2812C417.5 39.2656 417.602 39.8906 417.602 40.1562C417.602 46.3438 413.906 50.4375 406.516 52.4375C404.359 52.8906 402.797 53.1172 401.828 53.1172H396.953C389.062 53.1172 384.062 50.5859 381.953 45.5234C381.688 45.0859 381.555 44.5859 381.555 44.0234C381.555 39.5078 383.922 37.25 388.656 37.25C391.594 37.3438 394.109 38.1953 396.203 39.8047C393.297 41.0859 391.844 42.5469 391.844 44.1875C391.844 44.7188 392.164 45.7422 392.805 47.2578C393.445 48.7734 395.617 49.5312 399.32 49.5312H399.695C403.508 49.0312 405.414 47.6406 405.414 45.3594V44.0234C405.414 40.2734 399.922 37.1016 388.938 34.5078C384.875 32.5391 382.375 29.9766 381.438 26.8203C381.422 26.4297 381.414 26.0547 381.414 25.6953C381.414 18.3359 386.273 14.6562 395.992 14.6562Z" fill="#F7B745"/>
<defs>
<filter id="filter0_d_39_2394" x="1.92969" y="18.6562" width="428.672" height="51.2812" filterUnits="userSpaceOnUse" color-interpolation-filters="sRGB">
<feFlood flood-opacity="0" result="BackgroundImageFix"/>
<feColorMatrix in="SourceAlpha" type="matrix" values="0 0 0 0 0 0 0 0 0 0 0 0 0 0 0 0 0 0 127 0" result="hardAlpha"/>
<feOffset dx="5" dy="6"/>
<feGaussianBlur stdDeviation="3"/>
<feComposite in2="hardAlpha" operator="out"/>
<feColorMatrix type="matrix" values="0 0 0 0 0 0 0 0 0 0 0 0 0 0 0 0 0 0 0.25 0"/>
<feBlend mode="normal" in2="BackgroundImageFix" result="effect1_dropShadow_39_2394"/>
<feBlend mode="normal" in="SourceGraphic" in2="effect1_dropShadow_39_2394" result="shape"/>
</filter>
</defs>
</svg>
