<svg width="120" height="39" viewBox="0 0 120 39" fill="none" xmlns="http://www.w3.org/2000/svg">
<path d="M9.84 22.4C8.18667 22.4 6.63467 22.1227 5.184 21.568C3.73333 21.024 2.56 20.2133 1.664 19.136C0.768 18.0587 0.32 16.7733 0.32 15.28C0.32 14.48 0.496 13.7973 0.848 13.232C1.2 12.656 1.648 12.224 2.192 11.936C2.74667 11.6373 3.31733 11.488 3.904 11.488C4.61867 11.488 5.22133 11.7067 5.712 12.144C6.21333 12.5707 6.464 13.1733 6.464 13.952C6.464 14.464 6.288 14.9013 5.936 15.264C5.584 15.616 5.104 15.792 4.496 15.792C3.984 15.792 3.568 15.5733 3.248 15.136C3.09867 14.9227 3.024 14.704 3.024 14.48C3.024 14.3093 3.06133 14.1547 3.136 14.016C3.21067 13.8667 3.29067 13.7653 3.376 13.712C3.54667 13.9467 3.76 14.064 4.016 14.064C4.24 14.064 4.43733 13.984 4.608 13.824C4.77867 13.6533 4.864 13.4507 4.864 13.216C4.864 12.8533 4.73067 12.56 4.464 12.336C4.19733 12.112 3.888 12 3.536 12C3.14133 12 2.78933 12.1493 2.48 12.448C2.18133 12.7467 2.032 13.184 2.032 13.76C2.032 15.2747 2.44267 16.672 3.264 17.952C4.08533 19.2213 5.13067 20.224 6.4 20.96C7.66933 21.696 8.944 22.064 10.224 22.064C11.216 22.064 12.112 21.8187 12.912 21.328C13.712 20.8373 14.352 20.0693 14.832 19.024C15.312 17.9787 15.552 16.656 15.552 15.056C15.552 14.0533 15.4667 13.072 15.296 12.112C15.1253 11.1413 14.8747 10.3413 14.544 9.712C14.2133 9.08267 13.824 8.768 13.376 8.768C12.928 8.768 12.544 9.03467 12.224 9.568C11.904 10.0907 11.664 10.784 11.504 11.648C11.344 12.5013 11.264 13.4133 11.264 14.384C11.264 15.92 11.44 17.2053 11.792 18.24C12.144 19.2747 12.6933 19.872 13.44 20.032V20.256C12.1067 20.2667 10.944 20 9.952 19.456C8.96 18.912 8.19733 18.192 7.664 17.296C7.14133 16.4 6.88 15.4347 6.88 14.4C6.88 13.408 7.14133 12.4587 7.664 11.552C8.18667 10.6347 8.93867 9.888 9.92 9.312C10.912 8.736 12.064 8.448 13.376 8.448C14.688 8.448 15.8347 8.736 16.816 9.312C17.808 9.888 18.5653 10.6347 19.088 11.552C19.6107 12.4587 19.872 13.408 19.872 14.4C19.872 16.1173 19.3973 17.5787 18.448 18.784C17.4987 19.9893 16.256 20.8907 14.72 21.488C13.1947 22.096 11.568 22.4 9.84 22.4ZM25.876 20.224C25.0227 20.224 24.212 20.0693 23.444 19.76C22.676 19.4507 22.0467 18.9653 21.556 18.304C21.0653 17.632 20.82 16.7893 20.82 15.776C20.82 14.9973 21.0013 14.256 21.364 13.552C21.7267 12.848 22.2813 12.2773 23.028 11.84C23.7853 11.392 24.7133 11.168 25.812 11.168C26.8573 11.168 27.7747 11.36 28.564 11.744C29.364 12.128 29.764 12.7467 29.764 13.6C29.764 13.9307 29.6627 14.224 29.46 14.48C29.268 14.7253 29.012 14.9173 28.692 15.056C28.3827 15.184 28.0627 15.248 27.732 15.248C27.4547 15.248 27.1987 15.2 26.964 15.104C26.7293 15.008 26.5373 14.864 26.388 14.672C26.5907 14.4693 26.7453 14.2027 26.852 13.872C26.9587 13.5307 27.012 13.1893 27.012 12.848C27.012 12.4853 26.9533 12.1867 26.836 11.952C26.7187 11.7067 26.548 11.584 26.324 11.584C25.78 11.584 25.364 11.8827 25.076 12.48C24.788 13.0773 24.644 13.8347 24.644 14.752C24.644 15.5307 24.804 16.224 25.124 16.832C25.444 17.4293 25.8493 17.8987 26.34 18.24C26.8307 18.5707 27.316 18.736 27.796 18.736C28.2227 18.736 28.5853 18.5973 28.884 18.32C29.1827 18.0427 29.3747 17.632 29.46 17.088H29.828C29.7853 17.728 29.5827 18.288 29.22 18.768C28.8573 19.2373 28.3827 19.6 27.796 19.856C27.2093 20.1013 26.5693 20.224 25.876 20.224ZM35.5166 20.224C34.6633 20.224 33.8526 20.0693 33.0846 19.76C32.3166 19.4507 31.6873 18.9653 31.1966 18.304C30.706 17.632 30.4606 16.7893 30.4606 15.776C30.4606 14.9973 30.642 14.256 31.0046 13.552C31.3673 12.848 31.922 12.2773 32.6686 11.84C33.426 11.392 34.354 11.168 35.4526 11.168C36.5193 11.168 37.442 11.3653 38.2206 11.76C38.9993 12.1547 39.3886 12.784 39.3886 13.648C39.3886 14.4693 39.058 15.1147 38.3966 15.584C37.7353 16.0427 36.914 16.272 35.9326 16.272C35.4633 16.272 34.9406 16.2027 34.3646 16.064C34.5033 16.6613 34.7326 17.1787 35.0526 17.616C35.3726 18.0427 35.7353 18.368 36.1406 18.592C36.546 18.8053 36.9513 18.912 37.3566 18.912C37.826 18.912 38.2206 18.7573 38.5406 18.448C38.8606 18.1387 39.0633 17.6853 39.1486 17.088H39.4686C39.426 17.728 39.2233 18.288 38.8606 18.768C38.498 19.2373 38.0233 19.6 37.4366 19.856C36.85 20.1013 36.21 20.224 35.5166 20.224ZM34.3006 15.76C34.45 15.7813 34.562 15.792 34.6366 15.792C35.234 15.792 35.714 15.504 36.0766 14.928C36.45 14.352 36.6366 13.6213 36.6366 12.736C36.6366 12.352 36.578 12.0373 36.4606 11.792C36.354 11.5467 36.1886 11.424 35.9646 11.424C35.4206 11.424 34.994 11.7493 34.6846 12.4C34.3753 13.04 34.2206 13.824 34.2206 14.752C34.2206 15.0827 34.2473 15.4187 34.3006 15.76ZM43.0773 20.256C42.5759 20.256 42.0959 20.1547 41.6373 19.952C41.1786 19.7387 40.8053 19.4347 40.5173 19.04C40.2399 18.6453 40.1013 18.192 40.1013 17.68C40.1013 17.1787 40.2773 16.72 40.6293 16.304C40.9919 15.8773 41.5306 15.536 42.2453 15.28C42.9706 15.0133 43.8559 14.88 44.9013 14.88C45.1893 14.88 45.4079 14.8853 45.5573 14.896V12.896C45.5573 12.4587 45.4666 12.1227 45.2853 11.888C45.1146 11.6427 44.9066 11.52 44.6613 11.52C44.4159 11.52 44.2026 11.6427 44.0213 11.888C43.8399 12.1227 43.7493 12.4533 43.7493 12.88C43.7493 13.4347 43.9519 13.8933 44.3573 14.256C43.7279 14.4907 43.1839 14.608 42.7253 14.608C42.2026 14.608 41.7973 14.4853 41.5093 14.24C41.2213 13.9947 41.0773 13.6907 41.0773 13.328C41.0773 12.656 41.4079 12.1333 42.0693 11.76C42.7306 11.376 43.5359 11.184 44.4852 11.184C45.2959 11.184 46.0746 11.3333 46.8213 11.632C47.5786 11.92 48.1973 12.3573 48.6773 12.944C49.1573 13.5307 49.3973 14.2507 49.3973 15.104V17.984C49.3973 18.5067 49.4613 18.928 49.5893 19.248C49.7279 19.568 49.9679 19.744 50.3093 19.776V20H47.2533C46.7946 20 46.4213 19.888 46.1333 19.664C45.8559 19.4293 45.6799 19.1147 45.6053 18.72C45.3706 19.232 45.0239 19.616 44.5653 19.872C44.1173 20.128 43.6213 20.256 43.0773 20.256ZM45.5573 15.312C44.9173 15.3653 44.4106 15.6213 44.0373 16.08C43.6639 16.528 43.4773 17.0453 43.4773 17.632C43.4773 18.0267 43.5733 18.336 43.7653 18.56C43.9679 18.784 44.2026 18.896 44.4693 18.896C44.6826 18.896 44.8853 18.8267 45.0773 18.688C45.2693 18.5493 45.4293 18.352 45.5573 18.096V15.312ZM50.945 19.776C51.3077 19.5733 51.5477 19.3173 51.665 19.008C51.793 18.6987 51.857 18.3573 51.857 17.984V14.128C51.857 13.3813 51.8357 12.8427 51.793 12.512C51.7503 12.1813 51.665 11.9467 51.537 11.808C51.4197 11.6693 51.2223 11.5787 50.945 11.536V11.312H55.697V12.576C56.0703 12.1173 56.5183 11.7707 57.041 11.536C57.5743 11.3013 58.1183 11.184 58.673 11.184C59.217 11.184 59.7183 11.2907 60.177 11.504C60.6463 11.7067 61.0197 12.0107 61.297 12.416C61.585 12.8107 61.729 13.28 61.729 13.824V17.984C61.729 18.368 61.7877 18.7147 61.905 19.024C62.033 19.3227 62.2783 19.5733 62.641 19.776V20H56.977V19.776C57.3397 19.5733 57.5797 19.3173 57.697 19.008C57.825 18.6987 57.889 18.3573 57.889 17.984V14.048C57.889 13.536 57.7823 13.1467 57.569 12.88C57.3557 12.6027 57.089 12.464 56.769 12.464C56.385 12.464 56.0277 12.64 55.697 12.992V17.984C55.697 18.368 55.7557 18.7147 55.873 19.024C56.001 19.3227 56.2463 19.5733 56.609 19.776V20H50.945V19.776ZM68.7128 20.256C67.9128 20.256 67.0968 20.1013 66.2648 19.792C65.4328 19.4827 64.7288 18.992 64.1528 18.32C63.5768 17.6373 63.2888 16.7733 63.2888 15.728C63.2888 14.608 63.5714 13.712 64.1368 13.04C64.7128 12.3573 65.4114 11.8773 66.2328 11.6C67.0541 11.3227 67.8808 11.184 68.7128 11.184C69.5021 11.184 70.3074 11.3227 71.1288 11.6C71.9608 11.8773 72.6701 12.3573 73.2568 13.04C73.8541 13.712 74.1528 14.608 74.1528 15.728C74.1528 16.7627 73.8541 17.6213 73.2568 18.304C72.6701 18.9867 71.9554 19.4827 71.1128 19.792C70.2701 20.1013 69.4701 20.256 68.7128 20.256ZM68.7288 19.936C69.1234 19.936 69.4328 19.5147 69.6568 18.672C69.8808 17.8187 69.9928 16.816 69.9928 15.664C69.9928 14.5333 69.8808 13.5573 69.6568 12.736C69.4434 11.9147 69.1341 11.504 68.7288 11.504C68.2488 11.504 67.8701 11.92 67.5928 12.752C67.3261 13.584 67.1927 14.5707 67.1927 15.712C67.1927 16.8533 67.3261 17.8453 67.5928 18.688C67.8701 19.52 68.2488 19.936 68.7288 19.936Z" fill="#3E256C"/>
<path d="M6.304 38.208C4.43733 37.9307 3.00267 37.792 2 37.792C1.296 37.792 0.736 37.856 0.32 37.984C0.32 37.4933 0.437333 37.0133 0.672 36.544C0.906667 36.064 1.19467 35.6213 1.536 35.216C1.888 34.8 2.368 34.272 2.976 33.632C3.62667 32.9493 4.14933 32.3733 4.544 31.904C4.93867 31.424 5.26933 30.9013 5.536 30.336C5.81333 29.76 5.952 29.1627 5.952 28.544C5.952 28 5.86133 27.568 5.68 27.248C5.49867 26.928 5.22667 26.768 4.864 26.768C4.39467 26.768 4.02667 26.9813 3.76 27.408C3.504 27.8347 3.376 28.3467 3.376 28.944C3.376 29.4133 3.456 29.856 3.616 30.272C3.776 30.688 4.016 31.0187 4.336 31.264C4.18667 31.424 3.984 31.5467 3.728 31.632C3.48267 31.7067 3.21067 31.744 2.912 31.744C2.208 31.744 1.62133 31.5467 1.152 31.152C0.693333 30.7467 0.464 30.2027 0.464 29.52C0.464 28.8053 0.682667 28.2187 1.12 27.76C1.568 27.2907 2.11733 26.9547 2.768 26.752C3.41867 26.5387 4.064 26.432 4.704 26.432C5.67467 26.432 6.53333 26.5547 7.28 26.8C8.02667 27.0347 8.608 27.3867 9.024 27.856C9.44 28.3147 9.648 28.8693 9.648 29.52C9.648 30.288 9.392 30.976 8.88 31.584C8.37867 32.1813 7.78667 32.688 7.104 33.104C6.42133 33.52 5.55733 33.984 4.512 34.496C3.69067 34.8907 3.08267 35.2107 2.688 35.456C2.304 35.6907 2.07467 35.9307 2 36.176C2.39467 35.9307 2.88533 35.7707 3.472 35.696C4.05867 35.6107 4.80533 35.5573 5.712 35.536C6.448 35.5147 7.02933 35.488 7.456 35.456C7.88267 35.4133 8.27733 35.328 8.64 35.2C9.00267 35.0613 9.27467 34.8587 9.456 34.592L9.616 34.704C9.552 34.8533 9.488 35.072 9.424 35.36C9.27467 35.9147 9.12 36.384 8.96 36.768C8.8 37.152 8.544 37.4933 8.192 37.792C7.84 38.0907 7.38133 38.24 6.816 38.24C6.592 38.24 6.42133 38.2293 6.304 38.208ZM16.73 38.256C15.418 38.256 14.298 37.9787 13.37 37.424C12.442 36.8587 11.7433 36.128 11.274 35.232C10.8047 34.3253 10.57 33.3653 10.57 32.352C10.57 31.328 10.8047 30.368 11.274 29.472C11.7433 28.5653 12.442 27.8347 13.37 27.28C14.298 26.7253 15.418 26.448 16.73 26.448C18.074 26.448 19.2207 26.7253 20.17 27.28C21.13 27.8347 21.85 28.5653 22.33 29.472C22.81 30.368 23.05 31.328 23.05 32.352C23.05 33.376 22.81 34.336 22.33 35.232C21.85 36.128 21.13 36.8587 20.17 37.424C19.2207 37.9787 18.074 38.256 16.73 38.256ZM16.73 37.92C17.1353 37.92 17.482 37.6587 17.77 37.136C18.0687 36.6133 18.2927 35.9307 18.442 35.088C18.5913 34.2347 18.666 33.328 18.666 32.368C18.666 31.408 18.5913 30.5013 18.442 29.648C18.2927 28.7947 18.0687 28.1067 17.77 27.584C17.482 27.0507 17.13 26.784 16.714 26.784C16.2873 26.784 15.9247 27.0453 15.626 27.568C15.3273 28.0907 15.1033 28.7787 14.954 29.632C14.8047 30.4747 14.73 31.376 14.73 32.336C14.73 33.296 14.8047 34.2027 14.954 35.056C15.1033 35.9093 15.3273 36.6027 15.626 37.136C15.9353 37.6587 16.3033 37.92 16.73 37.92ZM29.679 38.208C27.8123 37.9307 26.3777 37.792 25.375 37.792C24.671 37.792 24.111 37.856 23.695 37.984C23.695 37.4933 23.8123 37.0133 24.047 36.544C24.2817 36.064 24.5697 35.6213 24.911 35.216C25.263 34.8 25.743 34.272 26.351 33.632C27.0017 32.9493 27.5243 32.3733 27.919 31.904C28.3137 31.424 28.6443 30.9013 28.911 30.336C29.1883 29.76 29.327 29.1627 29.327 28.544C29.327 28 29.2363 27.568 29.055 27.248C28.8737 26.928 28.6017 26.768 28.239 26.768C27.7697 26.768 27.4017 26.9813 27.135 27.408C26.879 27.8347 26.751 28.3467 26.751 28.944C26.751 29.4133 26.831 29.856 26.991 30.272C27.151 30.688 27.391 31.0187 27.711 31.264C27.5617 31.424 27.359 31.5467 27.103 31.632C26.8577 31.7067 26.5857 31.744 26.287 31.744C25.583 31.744 24.9963 31.5467 24.527 31.152C24.0683 30.7467 23.839 30.2027 23.839 29.52C23.839 28.8053 24.0577 28.2187 24.495 27.76C24.943 27.2907 25.4923 26.9547 26.143 26.752C26.7937 26.5387 27.439 26.432 28.079 26.432C29.0497 26.432 29.9083 26.5547 30.655 26.8C31.4017 27.0347 31.983 27.3867 32.399 27.856C32.815 28.3147 33.023 28.8693 33.023 29.52C33.023 30.288 32.767 30.976 32.255 31.584C31.7537 32.1813 31.1617 32.688 30.479 33.104C29.7963 33.52 28.9323 33.984 27.887 34.496C27.0657 34.8907 26.4577 35.2107 26.063 35.456C25.679 35.6907 25.4497 35.9307 25.375 36.176C25.7697 35.9307 26.2603 35.7707 26.847 35.696C27.4337 35.6107 28.1803 35.5573 29.087 35.536C29.823 35.5147 30.4043 35.488 30.831 35.456C31.2577 35.4133 31.6523 35.328 32.015 35.2C32.3777 35.0613 32.6497 34.8587 32.831 34.592L32.991 34.704C32.927 34.8533 32.863 35.072 32.799 35.36C32.6497 35.9147 32.495 36.384 32.335 36.768C32.175 37.152 31.919 37.4933 31.567 37.792C31.215 38.0907 30.7563 38.24 30.191 38.24C29.967 38.24 29.7963 38.2293 29.679 38.208ZM38.1445 38.256C37.3445 38.256 36.5978 38.144 35.9045 37.92C35.2218 37.6853 34.6725 37.344 34.2565 36.896C33.8405 36.4373 33.6325 35.888 33.6325 35.248C33.6325 34.8107 33.7338 34.416 33.9365 34.064C34.1498 33.712 34.4325 33.44 34.7845 33.248C35.1365 33.0453 35.5152 32.944 35.9205 32.944C36.2832 32.944 36.6138 33.0347 36.9125 33.216C37.2218 33.3867 37.4565 33.6427 37.6165 33.984C37.2645 34.208 36.9925 34.528 36.8005 34.944C36.6085 35.3493 36.5125 35.776 36.5125 36.224C36.5125 36.7253 36.6298 37.152 36.8645 37.504C37.1098 37.856 37.4512 38.032 37.8885 38.032C38.4432 38.032 38.8698 37.76 39.1685 37.216C39.4778 36.672 39.6325 36.0107 39.6325 35.232C39.6325 34.4 39.4618 33.648 39.1205 32.976C38.7792 32.2933 38.3098 31.8933 37.7125 31.776L37.7285 31.488C38.2298 31.296 38.6138 30.9227 38.8805 30.368C39.1578 29.8133 39.2965 29.2213 39.2965 28.592C39.2965 28.08 39.2005 27.648 39.0085 27.296C38.8272 26.944 38.5765 26.768 38.2565 26.768C37.8938 26.768 37.6165 26.944 37.4245 27.296C37.2432 27.648 37.1525 28.08 37.1525 28.592C37.1525 28.9653 37.2005 29.3227 37.2965 29.664C37.4032 30.0053 37.5365 30.256 37.6965 30.416C37.2912 30.512 36.9232 30.56 36.5925 30.56C35.8992 30.56 35.3445 30.3947 34.9285 30.064C34.5232 29.7227 34.3205 29.312 34.3205 28.832C34.3205 28.4373 34.4752 28.0587 34.7845 27.696C35.0938 27.3333 35.5738 27.0347 36.2245 26.8C36.8752 26.5653 37.6752 26.448 38.6245 26.448C39.4565 26.448 40.1605 26.5653 40.7365 26.8C41.3125 27.0347 41.7445 27.344 42.0325 27.728C42.3205 28.112 42.4645 28.528 42.4645 28.976C42.4645 29.4133 42.3312 29.8347 42.0645 30.24C41.8085 30.6453 41.4352 30.9867 40.9445 31.264C41.7018 31.4773 42.3525 31.872 42.8965 32.448C43.4405 33.0133 43.7125 33.6693 43.7125 34.416C43.7125 35.216 43.4405 35.9093 42.8965 36.496C42.3632 37.072 41.6698 37.5093 40.8165 37.808C39.9632 38.1067 39.0725 38.256 38.1445 38.256Z" fill="#3E256C"/>
</svg>
