<svg width="376" height="53" viewBox="0 0 376 53" fill="none" xmlns="http://www.w3.org/2000/svg">
<g filter="url(#filter0_d_39_1834)">
<path d="M28.77 42.2C23.81 42.2 19.154 41.368 14.802 39.704C10.45 38.072 6.93 35.64 4.242 32.408C1.554 29.176 0.21 25.32 0.21 20.84C0.21 18.44 0.738 16.392 1.794 14.696C2.85 12.968 4.194 11.672 5.826 10.808C7.49 9.912 9.202 9.464 10.962 9.464C13.106 9.464 14.914 10.12 16.386 11.432C17.89 12.712 18.642 14.52 18.642 16.856C18.642 18.392 18.114 19.704 17.058 20.792C16.002 21.848 14.562 22.376 12.738 22.376C11.202 22.376 9.954 21.72 8.994 20.408C8.546 19.768 8.322 19.112 8.322 18.44C8.322 17.928 8.434 17.464 8.658 17.048C8.882 16.6 9.122 16.296 9.378 16.136C9.89 16.84 10.53 17.192 11.298 17.192C11.97 17.192 12.562 16.952 13.074 16.472C13.586 15.96 13.842 15.352 13.842 14.648C13.842 13.56 13.442 12.68 12.642 12.008C11.842 11.336 10.914 11 9.858 11C8.674 11 7.618 11.448 6.69 12.344C5.794 13.24 5.346 14.552 5.346 16.28C5.346 20.824 6.578 25.016 9.042 28.856C11.506 32.664 14.642 35.672 18.45 37.88C22.258 40.088 26.082 41.192 29.922 41.192C32.898 41.192 35.586 40.456 37.986 38.984C40.386 37.512 42.306 35.208 43.746 32.072C45.186 28.936 45.906 24.968 45.906 20.168C45.906 17.16 45.65 14.216 45.138 11.336C44.626 8.424 43.874 6.024 42.882 4.136C41.89 2.248 40.722 1.304 39.378 1.304C38.034 1.304 36.882 2.104 35.922 3.704C34.962 5.272 34.242 7.352 33.762 9.944C33.282 12.504 33.042 15.24 33.042 18.152C33.042 22.76 33.57 26.616 34.626 29.72C35.682 32.824 37.33 34.616 39.57 35.096V35.768C35.57 35.8 32.082 35 29.106 33.368C26.13 31.736 23.842 29.576 22.242 26.888C20.674 24.2 19.89 21.304 19.89 18.2C19.89 15.224 20.674 12.376 22.242 9.656C23.81 6.904 26.066 4.664 29.01 2.936C31.986 1.208 35.442 0.343997 39.378 0.343997C43.314 0.343997 46.754 1.208 49.698 2.936C52.674 4.664 54.946 6.904 56.514 9.656C58.082 12.376 58.866 15.224 58.866 18.2C58.866 23.352 57.442 27.736 54.594 31.352C51.746 34.968 48.018 37.672 43.41 39.464C38.834 41.288 33.954 42.2 28.77 42.2ZM76.878 35.672C74.318 35.672 71.886 35.208 69.582 34.28C67.278 33.352 65.39 31.896 63.918 29.912C62.446 27.896 61.71 25.368 61.71 22.328C61.71 19.992 62.254 17.768 63.342 15.656C64.43 13.544 66.094 11.832 68.334 10.52C70.606 9.176 73.39 8.504 76.686 8.504C79.822 8.504 82.574 9.08 84.942 10.232C87.342 11.384 88.542 13.24 88.542 15.8C88.542 16.792 88.238 17.672 87.63 18.44C87.054 19.176 86.286 19.752 85.326 20.168C84.398 20.552 83.438 20.744 82.446 20.744C81.614 20.744 80.846 20.6 80.142 20.312C79.438 20.024 78.862 19.592 78.414 19.016C79.022 18.408 79.486 17.608 79.806 16.616C80.126 15.592 80.286 14.568 80.286 13.544C80.286 12.456 80.11 11.56 79.758 10.856C79.406 10.12 78.894 9.752 78.222 9.752C76.59 9.752 75.342 10.648 74.478 12.44C73.614 14.232 73.182 16.504 73.182 19.256C73.182 21.592 73.662 23.672 74.622 25.496C75.582 27.288 76.798 28.696 78.27 29.72C79.742 30.712 81.198 31.208 82.638 31.208C83.918 31.208 85.006 30.792 85.902 29.96C86.798 29.128 87.374 27.896 87.63 26.264H88.734C88.606 28.184 87.998 29.864 86.91 31.304C85.822 32.712 84.398 33.8 82.638 34.568C80.878 35.304 78.958 35.672 76.878 35.672ZM105.8 35.672C103.24 35.672 100.808 35.208 98.5039 34.28C96.1999 33.352 94.3119 31.896 92.8399 29.912C91.3679 27.896 90.6319 25.368 90.6319 22.328C90.6319 19.992 91.1759 17.768 92.2639 15.656C93.3519 13.544 95.0159 11.832 97.2559 10.52C99.5279 9.176 102.312 8.504 105.608 8.504C108.808 8.504 111.576 9.096 113.912 10.28C116.248 11.464 117.416 13.352 117.416 15.944C117.416 18.408 116.424 20.344 114.44 21.752C112.456 23.128 109.992 23.816 107.048 23.816C105.64 23.816 104.072 23.608 102.344 23.192C102.76 24.984 103.448 26.536 104.408 27.848C105.368 29.128 106.456 30.104 107.672 30.776C108.888 31.416 110.104 31.736 111.32 31.736C112.728 31.736 113.912 31.272 114.872 30.344C115.832 29.416 116.44 28.056 116.696 26.264H117.656C117.528 28.184 116.92 29.864 115.832 31.304C114.744 32.712 113.32 33.8 111.56 34.568C109.8 35.304 107.88 35.672 105.8 35.672ZM102.152 22.28C102.6 22.344 102.936 22.376 103.16 22.376C104.952 22.376 106.392 21.512 107.48 19.784C108.6 18.056 109.16 15.864 109.16 13.208C109.16 12.056 108.984 11.112 108.632 10.376C108.312 9.64 107.816 9.272 107.144 9.272C105.512 9.272 104.232 10.248 103.304 12.2C102.376 14.12 101.912 16.472 101.912 19.256C101.912 20.248 101.992 21.256 102.152 22.28ZM128.482 35.768C126.978 35.768 125.538 35.464 124.162 34.856C122.786 34.216 121.666 33.304 120.802 32.12C119.97 30.936 119.554 29.576 119.554 28.04C119.554 26.536 120.082 25.16 121.138 23.912C122.226 22.632 123.842 21.608 125.986 20.84C128.162 20.04 130.818 19.64 133.954 19.64C134.818 19.64 135.474 19.656 135.922 19.688V13.688C135.922 12.376 135.65 11.368 135.106 10.664C134.594 9.928 133.97 9.56 133.234 9.56C132.498 9.56 131.858 9.928 131.314 10.664C130.77 11.368 130.498 12.36 130.498 13.64C130.498 15.304 131.106 16.68 132.322 17.768C130.434 18.472 128.802 18.824 127.426 18.824C125.858 18.824 124.642 18.456 123.778 17.72C122.914 16.984 122.482 16.072 122.482 14.984C122.482 12.968 123.474 11.4 125.458 10.28C127.442 9.128 129.858 8.552 132.706 8.552C135.138 8.552 137.474 9 139.714 9.896C141.986 10.76 143.842 12.072 145.282 13.832C146.722 15.592 147.442 17.752 147.442 20.312V28.952C147.442 30.52 147.634 31.784 148.018 32.744C148.434 33.704 149.154 34.232 150.178 34.328V35H141.01C139.634 35 138.514 34.664 137.65 33.992C136.818 33.288 136.29 32.344 136.066 31.16C135.362 32.696 134.322 33.848 132.946 34.616C131.602 35.384 130.114 35.768 128.482 35.768ZM135.922 20.936C134.002 21.096 132.482 21.864 131.362 23.24C130.242 24.584 129.682 26.136 129.682 27.896C129.682 29.08 129.97 30.008 130.546 30.68C131.154 31.352 131.858 31.688 132.658 31.688C133.298 31.688 133.906 31.48 134.482 31.064C135.058 30.648 135.538 30.056 135.922 29.288V20.936ZM152.085 34.328C153.173 33.72 153.893 32.952 154.245 32.024C154.629 31.096 154.821 30.072 154.821 28.952V17.384C154.821 15.144 154.757 13.528 154.629 12.536C154.501 11.544 154.245 10.84 153.861 10.424C153.509 10.008 152.917 9.736 152.085 9.608V8.936H166.341V12.728C167.461 11.352 168.805 10.312 170.373 9.608C171.973 8.904 173.605 8.552 175.269 8.552C176.901 8.552 178.405 8.872 179.781 9.512C181.189 10.12 182.309 11.032 183.141 12.248C184.005 13.432 184.437 14.84 184.437 16.472V28.952C184.437 30.104 184.613 31.144 184.965 32.072C185.349 32.968 186.085 33.72 187.173 34.328V35H170.181V34.328C171.269 33.72 171.989 32.952 172.341 32.024C172.725 31.096 172.917 30.072 172.917 28.952V17.144C172.917 15.608 172.597 14.44 171.957 13.64C171.317 12.808 170.517 12.392 169.557 12.392C168.405 12.392 167.333 12.92 166.341 13.976V28.952C166.341 30.104 166.517 31.144 166.869 32.072C167.253 32.968 167.989 33.72 169.077 34.328V35H152.085V34.328ZM205.388 35.768C202.988 35.768 200.54 35.304 198.044 34.376C195.548 33.448 193.436 31.976 191.708 29.96C189.98 27.912 189.116 25.32 189.116 22.184C189.116 18.824 189.964 16.136 191.66 14.12C193.388 12.072 195.484 10.632 197.948 9.8C200.412 8.968 202.892 8.552 205.388 8.552C207.756 8.552 210.172 8.968 212.636 9.8C215.132 10.632 217.26 12.072 219.02 14.12C220.812 16.136 221.708 18.824 221.708 22.184C221.708 25.288 220.812 27.864 219.02 29.912C217.26 31.96 215.116 33.448 212.588 34.376C210.06 35.304 207.66 35.768 205.388 35.768ZM205.436 34.808C206.62 34.808 207.548 33.544 208.22 31.016C208.892 28.456 209.228 25.448 209.228 21.992C209.228 18.6 208.892 15.672 208.22 13.208C207.58 10.744 206.652 9.512 205.436 9.512C203.996 9.512 202.86 10.76 202.028 13.256C201.228 15.752 200.828 18.712 200.828 22.136C200.828 25.56 201.228 28.536 202.028 31.064C202.86 33.56 203.996 34.808 205.436 34.808ZM253.568 35.624C247.968 34.792 243.664 34.376 240.656 34.376C238.544 34.376 236.864 34.568 235.616 34.952C235.616 33.48 235.968 32.04 236.672 30.632C237.376 29.192 238.24 27.864 239.264 26.648C240.32 25.4 241.76 23.816 243.584 21.896C245.536 19.848 247.104 18.12 248.288 16.712C249.472 15.272 250.464 13.704 251.264 12.008C252.096 10.28 252.512 8.488 252.512 6.632C252.512 5 252.24 3.704 251.696 2.744C251.152 1.784 250.336 1.304 249.248 1.304C247.84 1.304 246.736 1.944 245.936 3.224C245.168 4.504 244.784 6.04 244.784 7.832C244.784 9.24 245.024 10.568 245.504 11.816C245.984 13.064 246.704 14.056 247.664 14.792C247.216 15.272 246.608 15.64 245.84 15.896C245.104 16.12 244.288 16.232 243.392 16.232C241.28 16.232 239.52 15.64 238.112 14.456C236.736 13.24 236.048 11.608 236.048 9.56C236.048 7.416 236.704 5.656 238.016 4.28C239.36 2.872 241.008 1.864 242.96 1.256C244.912 0.615998 246.848 0.295998 248.768 0.295998C251.68 0.295998 254.256 0.663998 256.496 1.4C258.736 2.104 260.48 3.16 261.728 4.568C262.976 5.944 263.6 7.608 263.6 9.56C263.6 11.864 262.832 13.928 261.296 15.752C259.792 17.544 258.016 19.064 255.968 20.312C253.92 21.56 251.328 22.952 248.192 24.488C245.728 25.672 243.904 26.632 242.72 27.368C241.568 28.072 240.88 28.792 240.656 29.528C241.84 28.792 243.312 28.312 245.072 28.088C246.832 27.832 249.072 27.672 251.792 27.608C254 27.544 255.744 27.464 257.024 27.368C258.304 27.24 259.488 26.984 260.576 26.6C261.664 26.184 262.48 25.576 263.024 24.776L263.504 25.112C263.312 25.56 263.12 26.216 262.928 27.08C262.48 28.744 262.016 30.152 261.536 31.304C261.056 32.456 260.288 33.48 259.232 34.376C258.176 35.272 256.8 35.72 255.104 35.72C254.432 35.72 253.92 35.688 253.568 35.624ZM284.846 35.768C280.91 35.768 277.55 34.936 274.766 33.272C271.982 31.576 269.886 29.384 268.478 26.696C267.07 23.976 266.366 21.096 266.366 18.056C266.366 14.984 267.07 12.104 268.478 9.416C269.886 6.696 271.982 4.504 274.766 2.84C277.55 1.176 280.91 0.343997 284.846 0.343997C288.878 0.343997 292.318 1.176 295.166 2.84C298.046 4.504 300.206 6.696 301.646 9.416C303.086 12.104 303.806 14.984 303.806 18.056C303.806 21.128 303.086 24.008 301.646 26.696C300.206 29.384 298.046 31.576 295.166 33.272C292.318 34.936 288.878 35.768 284.846 35.768ZM284.846 34.76C286.062 34.76 287.102 33.976 287.966 32.408C288.862 30.84 289.534 28.792 289.982 26.264C290.43 23.704 290.654 20.984 290.654 18.104C290.654 15.224 290.43 12.504 289.982 9.944C289.534 7.384 288.862 5.32 287.966 3.752C287.102 2.152 286.046 1.352 284.798 1.352C283.518 1.352 282.43 2.136 281.534 3.704C280.638 5.272 279.966 7.336 279.518 9.896C279.07 12.424 278.846 15.128 278.846 18.008C278.846 20.888 279.07 23.608 279.518 26.168C279.966 28.728 280.638 30.808 281.534 32.408C282.462 33.976 283.566 34.76 284.846 34.76ZM323.693 35.624C318.093 34.792 313.789 34.376 310.781 34.376C308.669 34.376 306.989 34.568 305.741 34.952C305.741 33.48 306.093 32.04 306.797 30.632C307.501 29.192 308.365 27.864 309.389 26.648C310.445 25.4 311.885 23.816 313.709 21.896C315.661 19.848 317.229 18.12 318.413 16.712C319.597 15.272 320.589 13.704 321.389 12.008C322.221 10.28 322.637 8.488 322.637 6.632C322.637 5 322.365 3.704 321.821 2.744C321.277 1.784 320.461 1.304 319.373 1.304C317.965 1.304 316.861 1.944 316.061 3.224C315.293 4.504 314.909 6.04 314.909 7.832C314.909 9.24 315.149 10.568 315.629 11.816C316.109 13.064 316.829 14.056 317.789 14.792C317.341 15.272 316.733 15.64 315.965 15.896C315.229 16.12 314.413 16.232 313.517 16.232C311.405 16.232 309.645 15.64 308.237 14.456C306.861 13.24 306.173 11.608 306.173 9.56C306.173 7.416 306.829 5.656 308.141 4.28C309.485 2.872 311.133 1.864 313.085 1.256C315.037 0.615998 316.973 0.295998 318.893 0.295998C321.805 0.295998 324.381 0.663998 326.621 1.4C328.861 2.104 330.605 3.16 331.853 4.568C333.101 5.944 333.725 7.608 333.725 9.56C333.725 11.864 332.957 13.928 331.421 15.752C329.917 17.544 328.141 19.064 326.093 20.312C324.045 21.56 321.453 22.952 318.317 24.488C315.853 25.672 314.029 26.632 312.845 27.368C311.693 28.072 311.005 28.792 310.781 29.528C311.965 28.792 313.437 28.312 315.197 28.088C316.957 27.832 319.197 27.672 321.917 27.608C324.125 27.544 325.869 27.464 327.149 27.368C328.429 27.24 329.613 26.984 330.701 26.6C331.789 26.184 332.605 25.576 333.149 24.776L333.629 25.112C333.437 25.56 333.245 26.216 333.053 27.08C332.605 28.744 332.141 30.152 331.661 31.304C331.181 32.456 330.413 33.48 329.357 34.376C328.301 35.272 326.925 35.72 325.229 35.72C324.557 35.72 324.045 35.688 323.693 35.624ZM349.09 35.768C346.69 35.768 344.45 35.432 342.37 34.76C340.322 34.056 338.674 33.032 337.426 31.688C336.178 30.312 335.554 28.664 335.554 26.744C335.554 25.432 335.858 24.248 336.466 23.192C337.106 22.136 337.954 21.32 339.01 20.744C340.066 20.136 341.202 19.832 342.418 19.832C343.506 19.832 344.498 20.104 345.394 20.648C346.322 21.16 347.026 21.928 347.506 22.952C346.45 23.624 345.634 24.584 345.058 25.832C344.482 27.048 344.194 28.328 344.194 29.672C344.194 31.176 344.546 32.456 345.25 33.512C345.986 34.568 347.01 35.096 348.322 35.096C349.986 35.096 351.266 34.28 352.162 32.648C353.09 31.016 353.554 29.032 353.554 26.696C353.554 24.2 353.042 21.944 352.018 19.928C350.994 17.88 349.586 16.68 347.794 16.328L347.842 15.464C349.346 14.888 350.498 13.768 351.298 12.104C352.13 10.44 352.546 8.664 352.546 6.776C352.546 5.24 352.258 3.944 351.682 2.888C351.138 1.832 350.386 1.304 349.426 1.304C348.338 1.304 347.506 1.832 346.93 2.888C346.386 3.944 346.114 5.24 346.114 6.776C346.114 7.896 346.258 8.968 346.546 9.992C346.866 11.016 347.266 11.768 347.746 12.248C346.53 12.536 345.426 12.68 344.434 12.68C342.354 12.68 340.69 12.184 339.442 11.192C338.226 10.168 337.618 8.936 337.618 7.496C337.618 6.312 338.082 5.176 339.01 4.088C339.938 3 341.378 2.104 343.33 1.4C345.282 0.695997 347.682 0.343997 350.53 0.343997C353.026 0.343997 355.138 0.695997 356.866 1.4C358.594 2.104 359.89 3.032 360.754 4.184C361.618 5.336 362.05 6.584 362.05 7.928C362.05 9.24 361.65 10.504 360.85 11.72C360.082 12.936 358.962 13.96 357.49 14.792C359.762 15.432 361.714 16.616 363.346 18.344C364.978 20.04 365.794 22.008 365.794 24.248C365.794 26.648 364.978 28.728 363.346 30.488C361.746 32.216 359.666 33.528 357.106 34.424C354.546 35.32 351.874 35.768 349.09 35.768Z" fill="#F7B745"/>
</g>
<defs>
<filter id="filter0_d_39_1834" x="0.209961" y="0.29599" width="375.584" height="51.904" filterUnits="userSpaceOnUse" color-interpolation-filters="sRGB">
<feFlood flood-opacity="0" result="BackgroundImageFix"/>
<feColorMatrix in="SourceAlpha" type="matrix" values="0 0 0 0 0 0 0 0 0 0 0 0 0 0 0 0 0 0 127 0" result="hardAlpha"/>
<feOffset dx="6" dy="6"/>
<feGaussianBlur stdDeviation="2"/>
<feComposite in2="hardAlpha" operator="out"/>
<feColorMatrix type="matrix" values="0 0 0 0 0 0 0 0 0 0 0 0 0 0 0 0 0 0 0.25 0"/>
<feBlend mode="normal" in2="BackgroundImageFix" result="effect1_dropShadow_39_1834"/>
<feBlend mode="normal" in="SourceGraphic" in2="effect1_dropShadow_39_1834" result="shape"/>
</filter>
</defs>
</svg>
