<svg width="297" height="70" viewBox="0 0 297 70" fill="none" xmlns="http://www.w3.org/2000/svg">
<g filter="url(#filter0_d_39_1831)">
<path d="M43.5391 18.9141C44.2891 18.9141 48.5 18.9453 56.1719 19.0078L56.1484 21.3516C53.0234 24.5391 50.7656 29.25 49.375 35.4844C48 41.7188 47.125 45.9062 46.75 48.0469L46.5625 51.9141C47.0938 52.9609 47.75 53.4844 48.5312 53.4844L48.4844 56.8125H30.8828L30.7891 54.9141C31.8203 53.7891 32.4844 52.5 32.7812 51.0469C32.7812 47.6094 31.75 43.3906 29.6875 38.3906C27.8281 42.6094 26.6172 46.5078 26.0547 50.0859C26.2266 51.6016 27.0078 53.2188 28.3984 54.9375V56.8125H11.2422V53.2969C12.5703 52.9219 13.2344 51.6094 13.2344 49.3594C10.7656 37.5781 8.46875 29.2266 6.34375 24.3047C5.70312 23.3359 4.8125 22.3594 3.67188 21.375L3.64844 19.0078H21.6719L21.7656 21.2812C20.5156 23.3281 19.8906 24.7188 19.8906 25.4531V27.1172C19.8906 29.6328 21.0703 34.1875 23.4297 40.7812C25.9141 34.8125 27.1562 30.1641 27.1562 26.8359C26.9219 26.0234 26.1641 25.1562 24.8828 24.2344V21.6797H40.5625L40.6562 24.2344C39.625 25.1875 39.1094 26.3047 39.1094 27.5859C39.1094 27.9453 39.1484 28.3203 39.2266 28.7109C39.3828 29.8984 40.6953 34.0391 43.1641 41.1328C44.6484 34.7578 45.5 30.3047 45.7188 27.7734C45.5 25.3672 44.8047 23.2109 43.6328 21.3047L43.5391 18.9141ZM71.1016 34.5703C73.4609 32.9922 75.8906 32.2031 78.3906 32.2031C80.8281 32.2031 83.0078 33.1484 84.9297 35.0391C85.4922 35.8672 85.7734 36.7734 85.7734 37.7578C85.7734 39.3672 84.9062 41.4062 83.1719 43.875C80.6875 41.7969 78.5312 40.5156 76.7031 40.0312C75.5312 39.7656 74.4609 39.6328 73.4922 39.6328C72.5078 39.6328 71.7578 39.7266 71.2422 39.9141L71.3828 45.75C71.3828 51.1094 73.4766 53.8438 77.6641 53.9531C79.1797 53.8438 80.3672 51.4141 81.2266 46.6641L91.75 46.2891C91.5781 51.2109 89.0469 54.7734 84.1562 56.9766L57.9062 56.8125H57.0859V53.9531C57.5859 53.7969 57.9609 53.4219 58.2109 52.8281C59.4297 47.6406 60.0391 42.6562 60.0391 37.875C60.0391 32.5781 59.375 27.5156 58.0469 22.6875C57.8438 22.2969 57.5234 22.0234 57.0859 21.8672V19.0078C69.4609 18.9766 76.4844 18.9609 78.1562 18.9609H78.8359C87.0234 19.8672 91.1172 22.3047 91.1172 26.2734V26.9297L80.9219 29.8359C80.0938 24.9453 78.6875 22.5 76.7031 22.5H76.0469C73.1875 22.5 71.5234 25.875 71.0547 32.625L71.1016 34.5703ZM124.703 38.4375C125.969 40.1719 126.648 42.9531 126.742 46.7812C126.742 51.1562 123.734 54.2969 117.719 56.2031C116.5 56.5938 114.711 56.8203 112.352 56.8828C111.664 56.8828 109.242 56.8594 105.086 56.8125H91.8672V54.2812C93.3516 52.8125 94.0938 48.125 94.0938 40.2188V38.5547C94.1094 37.8203 94.1172 37.1094 94.1172 36.4219C94.1172 28.9688 93.3359 24.0625 91.7734 21.7031L91.7266 19.0312L108.414 19.1484L108.508 21.75C106.492 22.9062 105.484 28.0859 105.484 37.2891C105.484 43.8516 105.961 48.5391 106.914 51.3516C109.383 51.9141 111.68 52.2109 113.805 52.2422C115.945 52.2578 117.203 51.1953 117.578 49.0547C117.969 46.9141 116.266 45.4375 112.469 44.625C111.469 40.6562 112.312 37.875 115 36.2812C117.688 34.6875 120.922 35.4062 124.703 38.4375ZM151.164 23.25C145.273 24.1719 142.172 28.6172 141.859 36.5859C141.859 47.6328 144.453 53.1562 149.641 53.1562H150.297C151.203 53.1562 152.305 51.4766 153.602 48.1172C154.039 47.3047 154.258 46.3672 154.258 45.3047C154.258 44.1641 153.953 42.6953 153.344 40.8984C154.281 40.8672 154.961 40.8516 155.383 40.8516C160.633 40.8516 163.727 42.0938 164.664 44.5781C164.68 44.8125 164.688 45.0312 164.688 45.2344C164.688 52.1406 159.289 56.1016 148.492 57.1172H147.461C138.18 57.1172 131.633 52.5312 127.82 43.3594C127.352 41.0938 127.117 39.0469 127.117 37.2188V35.5781C127.117 32.2344 128.859 28.4453 132.344 24.2109C135.578 20.7734 140.32 19.0547 146.57 19.0547C146.914 19.0547 147.258 19.0625 147.602 19.0781C148.227 19.0781 148.859 19.0859 149.5 19.1016C156.734 19.1953 161.344 21.1875 163.328 25.0781C163.547 25.4219 163.672 26.1953 163.703 27.3984V27.4453C163.5 32.1797 161.086 34.5469 156.461 34.5469H156.086C152.898 33.9531 151.305 32.0547 151.305 28.8516V28.3828C151.461 27.5078 152.07 26.5547 153.133 25.5234L154.914 26.2031L155.336 26.2734C155.867 26.0234 156.172 25.7266 156.25 25.3828V25.3594C155.422 23.9219 154.039 23.2031 152.102 23.2031C151.789 23.2031 151.477 23.2188 151.164 23.25ZM185.852 18.8906H186.203C195.203 18.8906 201.422 22.2812 204.859 29.0625C206.281 32.4219 206.992 35.3672 206.992 37.8984C206.992 43.3672 204.375 48.5156 199.141 53.3438C195.25 55.875 190.82 57.1406 185.852 57.1406H183.742C171.352 55.8594 164.898 49.4453 164.383 37.8984C164.383 30.5078 168.438 24.7266 176.547 20.5547C179.766 19.4453 182.867 18.8906 185.852 18.8906ZM182.758 52.8047C182.914 52.8359 183.078 52.8516 183.25 52.8516C184.812 52.8516 186.516 51.5781 188.359 49.0312C190.203 46.4844 191.555 43.1094 192.414 38.9062C192.898 36.6406 193.141 34.5156 193.141 32.5312C193.141 30.8438 192.875 28.875 192.344 26.625C191.812 24.375 190.695 23.1094 188.992 22.8281C188.805 22.7969 188.625 22.7812 188.453 22.7812C186.922 22.7812 185.234 24.0547 183.391 26.6016C181.547 29.1328 180.188 32.5078 179.312 36.7266C178.828 38.9922 178.586 41.1172 178.586 43.1016C178.586 44.7891 178.852 46.7578 179.383 49.0078C179.914 51.2578 181.039 52.5234 182.758 52.8047ZM247.562 19.0781L247.703 21.2578C245.953 23.1328 245.078 26.8516 245.078 32.4141C245.078 43.1641 246.102 50.1484 248.148 53.3672L249.812 54.1875C249.875 55.1094 249.906 55.7266 249.906 56.0391C249.906 56.5859 249.57 56.8594 248.898 56.8594L248.875 56.8125H231.648L231.461 53.8828C231.977 53.9922 232.242 54.0469 232.258 54.0469C233.039 54.0469 233.602 51.6953 233.945 46.9922V42.7031C233.945 39.7031 233.695 36.3984 233.195 32.7891C230.914 36.7109 228.023 45.0938 224.523 57.9375C222.523 53.9219 220.781 49.7656 219.297 45.4688C217.812 41.1719 216.328 36.5938 214.844 31.7344C213.75 36.8125 213.203 41.9062 213.203 47.0156C213.203 50.2344 214.57 52.6484 217.305 54.2578L217.234 56.8125H203.898V54.2812C207.539 52.4062 209.359 44.125 209.359 29.4375C209.062 25.7656 208.258 23.2812 206.945 21.9844V18.9844L224.852 19.0547L224.828 21.5391C224.156 22.6484 223.82 23.5 223.82 24.0938C223.82 25.8281 224.25 27.8203 225.109 30.0703C225.953 32.7266 226.617 34.6797 227.102 35.9297L232 25.1016C231.641 23.6016 230.789 22.5859 229.445 22.0547L229.422 19.0312L247.562 19.0781ZM264.414 34.5703C266.773 32.9922 269.203 32.2031 271.703 32.2031C274.141 32.2031 276.32 33.1484 278.242 35.0391C278.805 35.8672 279.086 36.7734 279.086 37.7578C279.086 39.3672 278.219 41.4062 276.484 43.875C274 41.7969 271.844 40.5156 270.016 40.0312C268.844 39.7656 267.773 39.6328 266.805 39.6328C265.82 39.6328 265.07 39.7266 264.555 39.9141L264.695 45.75C264.695 51.1094 266.789 53.8438 270.977 53.9531C272.492 53.8438 273.68 51.4141 274.539 46.6641L285.062 46.2891C284.891 51.2109 282.359 54.7734 277.469 56.9766L251.219 56.8125H250.398V53.9531C250.898 53.7969 251.273 53.4219 251.523 52.8281C252.742 47.6406 253.352 42.6562 253.352 37.875C253.352 32.5781 252.688 27.5156 251.359 22.6875C251.156 22.2969 250.836 22.0234 250.398 21.8672V19.0078C262.773 18.9766 269.797 18.9609 271.469 18.9609H272.148C280.336 19.8672 284.43 22.3047 284.43 26.2734V26.9297L274.234 29.8359C273.406 24.9453 272 22.5 270.016 22.5H269.359C266.5 22.5 264.836 25.875 264.367 32.625L264.414 34.5703Z" fill="#DE3500"/>
</g>
<path d="M41.5391 14.9141C42.2891 14.9141 46.5 14.9453 54.1719 15.0078L54.1484 17.3516C51.0234 20.5391 48.7656 25.25 47.375 31.4844C46 37.7188 45.125 41.9062 44.75 44.0469L44.5625 47.9141C45.0938 48.9609 45.75 49.4844 46.5312 49.4844L46.4844 52.8125H28.8828L28.7891 50.9141C29.8203 49.7891 30.4844 48.5 30.7812 47.0469C30.7812 43.6094 29.75 39.3906 27.6875 34.3906C25.8281 38.6094 24.6172 42.5078 24.0547 46.0859C24.2266 47.6016 25.0078 49.2188 26.3984 50.9375V52.8125H9.24219V49.2969C10.5703 48.9219 11.2344 47.6094 11.2344 45.3594C8.76562 33.5781 6.46875 25.2266 4.34375 20.3047C3.70312 19.3359 2.8125 18.3594 1.67188 17.375L1.64844 15.0078H19.6719L19.7656 17.2812C18.5156 19.3281 17.8906 20.7188 17.8906 21.4531V23.1172C17.8906 25.6328 19.0703 30.1875 21.4297 36.7812C23.9141 30.8125 25.1562 26.1641 25.1562 22.8359C24.9219 22.0234 24.1641 21.1562 22.8828 20.2344V17.6797H38.5625L38.6562 20.2344C37.625 21.1875 37.1094 22.3047 37.1094 23.5859C37.1094 23.9453 37.1484 24.3203 37.2266 24.7109C37.3828 25.8984 38.6953 30.0391 41.1641 37.1328C42.6484 30.7578 43.5 26.3047 43.7188 23.7734C43.5 21.3672 42.8047 19.2109 41.6328 17.3047L41.5391 14.9141ZM69.1016 30.5703C71.4609 28.9922 73.8906 28.2031 76.3906 28.2031C78.8281 28.2031 81.0078 29.1484 82.9297 31.0391C83.4922 31.8672 83.7734 32.7734 83.7734 33.7578C83.7734 35.3672 82.9062 37.4062 81.1719 39.875C78.6875 37.7969 76.5312 36.5156 74.7031 36.0312C73.5312 35.7656 72.4609 35.6328 71.4922 35.6328C70.5078 35.6328 69.7578 35.7266 69.2422 35.9141L69.3828 41.75C69.3828 47.1094 71.4766 49.8438 75.6641 49.9531C77.1797 49.8438 78.3672 47.4141 79.2266 42.6641L89.75 42.2891C89.5781 47.2109 87.0469 50.7734 82.1562 52.9766L55.9062 52.8125H55.0859V49.9531C55.5859 49.7969 55.9609 49.4219 56.2109 48.8281C57.4297 43.6406 58.0391 38.6562 58.0391 33.875C58.0391 28.5781 57.375 23.5156 56.0469 18.6875C55.8438 18.2969 55.5234 18.0234 55.0859 17.8672V15.0078C67.4609 14.9766 74.4844 14.9609 76.1562 14.9609H76.8359C85.0234 15.8672 89.1172 18.3047 89.1172 22.2734V22.9297L78.9219 25.8359C78.0938 20.9453 76.6875 18.5 74.7031 18.5H74.0469C71.1875 18.5 69.5234 21.875 69.0547 28.625L69.1016 30.5703ZM122.703 34.4375C123.969 36.1719 124.648 38.9531 124.742 42.7812C124.742 47.1562 121.734 50.2969 115.719 52.2031C114.5 52.5938 112.711 52.8203 110.352 52.8828C109.664 52.8828 107.242 52.8594 103.086 52.8125H89.8672V50.2812C91.3516 48.8125 92.0938 44.125 92.0938 36.2188V34.5547C92.1094 33.8203 92.1172 33.1094 92.1172 32.4219C92.1172 24.9688 91.3359 20.0625 89.7734 17.7031L89.7266 15.0312L106.414 15.1484L106.508 17.75C104.492 18.9062 103.484 24.0859 103.484 33.2891C103.484 39.8516 103.961 44.5391 104.914 47.3516C107.383 47.9141 109.68 48.2109 111.805 48.2422C113.945 48.2578 115.203 47.1953 115.578 45.0547C115.969 42.9141 114.266 41.4375 110.469 40.625C109.469 36.6562 110.312 33.875 113 32.2812C115.688 30.6875 118.922 31.4062 122.703 34.4375ZM149.164 19.25C143.273 20.1719 140.172 24.6172 139.859 32.5859C139.859 43.6328 142.453 49.1562 147.641 49.1562H148.297C149.203 49.1562 150.305 47.4766 151.602 44.1172C152.039 43.3047 152.258 42.3672 152.258 41.3047C152.258 40.1641 151.953 38.6953 151.344 36.8984C152.281 36.8672 152.961 36.8516 153.383 36.8516C158.633 36.8516 161.727 38.0938 162.664 40.5781C162.68 40.8125 162.688 41.0312 162.688 41.2344C162.688 48.1406 157.289 52.1016 146.492 53.1172H145.461C136.18 53.1172 129.633 48.5312 125.82 39.3594C125.352 37.0938 125.117 35.0469 125.117 33.2188V31.5781C125.117 28.2344 126.859 24.4453 130.344 20.2109C133.578 16.7734 138.32 15.0547 144.57 15.0547C144.914 15.0547 145.258 15.0625 145.602 15.0781C146.227 15.0781 146.859 15.0859 147.5 15.1016C154.734 15.1953 159.344 17.1875 161.328 21.0781C161.547 21.4219 161.672 22.1953 161.703 23.3984V23.4453C161.5 28.1797 159.086 30.5469 154.461 30.5469H154.086C150.898 29.9531 149.305 28.0547 149.305 24.8516V24.3828C149.461 23.5078 150.07 22.5547 151.133 21.5234L152.914 22.2031L153.336 22.2734C153.867 22.0234 154.172 21.7266 154.25 21.3828V21.3594C153.422 19.9219 152.039 19.2031 150.102 19.2031C149.789 19.2031 149.477 19.2188 149.164 19.25ZM183.852 14.8906H184.203C193.203 14.8906 199.422 18.2812 202.859 25.0625C204.281 28.4219 204.992 31.3672 204.992 33.8984C204.992 39.3672 202.375 44.5156 197.141 49.3438C193.25 51.875 188.82 53.1406 183.852 53.1406H181.742C169.352 51.8594 162.898 45.4453 162.383 33.8984C162.383 26.5078 166.438 20.7266 174.547 16.5547C177.766 15.4453 180.867 14.8906 183.852 14.8906ZM180.758 48.8047C180.914 48.8359 181.078 48.8516 181.25 48.8516C182.812 48.8516 184.516 47.5781 186.359 45.0312C188.203 42.4844 189.555 39.1094 190.414 34.9062C190.898 32.6406 191.141 30.5156 191.141 28.5312C191.141 26.8438 190.875 24.875 190.344 22.625C189.812 20.375 188.695 19.1094 186.992 18.8281C186.805 18.7969 186.625 18.7812 186.453 18.7812C184.922 18.7812 183.234 20.0547 181.391 22.6016C179.547 25.1328 178.188 28.5078 177.312 32.7266C176.828 34.9922 176.586 37.1172 176.586 39.1016C176.586 40.7891 176.852 42.7578 177.383 45.0078C177.914 47.2578 179.039 48.5234 180.758 48.8047ZM245.562 15.0781L245.703 17.2578C243.953 19.1328 243.078 22.8516 243.078 28.4141C243.078 39.1641 244.102 46.1484 246.148 49.3672L247.812 50.1875C247.875 51.1094 247.906 51.7266 247.906 52.0391C247.906 52.5859 247.57 52.8594 246.898 52.8594L246.875 52.8125H229.648L229.461 49.8828C229.977 49.9922 230.242 50.0469 230.258 50.0469C231.039 50.0469 231.602 47.6953 231.945 42.9922V38.7031C231.945 35.7031 231.695 32.3984 231.195 28.7891C228.914 32.7109 226.023 41.0938 222.523 53.9375C220.523 49.9219 218.781 45.7656 217.297 41.4688C215.812 37.1719 214.328 32.5938 212.844 27.7344C211.75 32.8125 211.203 37.9062 211.203 43.0156C211.203 46.2344 212.57 48.6484 215.305 50.2578L215.234 52.8125H201.898V50.2812C205.539 48.4062 207.359 40.125 207.359 25.4375C207.062 21.7656 206.258 19.2812 204.945 17.9844V14.9844L222.852 15.0547L222.828 17.5391C222.156 18.6484 221.82 19.5 221.82 20.0938C221.82 21.8281 222.25 23.8203 223.109 26.0703C223.953 28.7266 224.617 30.6797 225.102 31.9297L230 21.1016C229.641 19.6016 228.789 18.5859 227.445 18.0547L227.422 15.0312L245.562 15.0781ZM262.414 30.5703C264.773 28.9922 267.203 28.2031 269.703 28.2031C272.141 28.2031 274.32 29.1484 276.242 31.0391C276.805 31.8672 277.086 32.7734 277.086 33.7578C277.086 35.3672 276.219 37.4062 274.484 39.875C272 37.7969 269.844 36.5156 268.016 36.0312C266.844 35.7656 265.773 35.6328 264.805 35.6328C263.82 35.6328 263.07 35.7266 262.555 35.9141L262.695 41.75C262.695 47.1094 264.789 49.8438 268.977 49.9531C270.492 49.8438 271.68 47.4141 272.539 42.6641L283.062 42.2891C282.891 47.2109 280.359 50.7734 275.469 52.9766L249.219 52.8125H248.398V49.9531C248.898 49.7969 249.273 49.4219 249.523 48.8281C250.742 43.6406 251.352 38.6562 251.352 33.875C251.352 28.5781 250.688 23.5156 249.359 18.6875C249.156 18.2969 248.836 18.0234 248.398 17.8672V15.0078C260.773 14.9766 267.797 14.9609 269.469 14.9609H270.148C278.336 15.8672 282.43 18.3047 282.43 22.2734V22.9297L272.234 25.8359C271.406 20.9453 270 18.5 268.016 18.5H267.359C264.5 18.5 262.836 21.875 262.367 28.625L262.414 30.5703Z" fill="#F7B745"/>
<defs>
<filter id="filter0_d_39_1831" x="2.64844" y="18.8906" width="293.414" height="51.0469" filterUnits="userSpaceOnUse" color-interpolation-filters="sRGB">
<feFlood flood-opacity="0" result="BackgroundImageFix"/>
<feColorMatrix in="SourceAlpha" type="matrix" values="0 0 0 0 0 0 0 0 0 0 0 0 0 0 0 0 0 0 127 0" result="hardAlpha"/>
<feOffset dx="5" dy="6"/>
<feGaussianBlur stdDeviation="3"/>
<feComposite in2="hardAlpha" operator="out"/>
<feColorMatrix type="matrix" values="0 0 0 0 0 0 0 0 0 0 0 0 0 0 0 0 0 0 0.25 0"/>
<feBlend mode="normal" in2="BackgroundImageFix" result="effect1_dropShadow_39_1831"/>
<feBlend mode="normal" in="SourceGraphic" in2="effect1_dropShadow_39_1831" result="shape"/>
</filter>
</defs>
</svg>
